<?xml version="1.0" encoding="UTF-8"?>
<svg version="1.1" xmlns="http://www.w3.org/2000/svg" width="512" height="512">
<path d="M0 0 C0.92683594 -0.01675781 1.85367188 -0.03351562 2.80859375 -0.05078125 C6.33995097 0.41505736 7.80489929 0.99870065 10.5625 3.3125 C12.71102782 6.45656129 14.41265151 9.79046755 16.125 13.1875 C16.64094727 14.19546631 17.15689453 15.20343262 17.68847656 16.24194336 C25.06056199 30.94257828 31.4391558 46.23574298 36.84765625 61.765625 C37.19473633 62.76005615 37.54181641 63.7544873 37.89941406 64.77905273 C38.52367921 66.60013853 39.13027102 68.42743953 39.71386719 70.26196289 C41.57108451 75.75722405 43.9658705 79.38889058 48.06323242 83.51245117 C49.68743831 85.46250328 50.15454152 86.8343656 50.5625 89.3125 C51.55507812 88.96316406 52.54765625 88.61382812 53.5703125 88.25390625 C68.32044051 83.23600999 82.47701174 81.09376643 97.3125 87.5 C108.52660935 93.66776014 115.76191399 103.13388722 121.5625 114.3125 C122.70847656 113.68601562 123.85445313 113.05953125 125.03515625 112.4140625 C126.56491053 111.58818289 128.09486937 110.76268211 129.625 109.9375 C130.37716797 109.525 131.12933594 109.1125 131.90429688 108.6875 C139.94365859 104.37199847 147.39396101 102.2426114 156.5625 103.3125 C163.55620237 105.53716342 168.45249096 111.89662537 171.7578125 118.1875 C172.41660418 119.55511189 173.05947401 120.93048983 173.6875 122.3125 C174.19724365 123.42008667 174.19724365 123.42008667 174.71728516 124.55004883 C178.96096983 134.07134519 181.36387762 143.52301169 182.1875 153.9375 C182.67104654 158.59009121 182.67104654 158.59009121 185.5546875 161.98046875 C187.26836812 162.7625691 189.01112548 163.48312662 190.7734375 164.1484375 C201.17863392 168.49122256 207.00220343 178.54797609 211.5625 188.3125 C215.65559339 198.70359721 218.0836232 210.1083511 217.5625 221.3125 C218.40167969 221.498125 218.40167969 221.498125 219.2578125 221.6875 C240.41427097 227.12967581 257.31941974 243.39694311 268.4296875 261.609375 C274.64263361 272.17865327 279.28723297 283.50237191 282.5625 295.3125 C282.76004883 296.01342773 282.95759766 296.71435547 283.16113281 297.43652344 C290.36413372 324.13831896 289.1765008 353.89267595 275.73046875 378.34912109 C272.52544388 383.73683222 268.60994386 388.54326199 264.5625 393.3125 C263.9128125 394.08980469 263.263125 394.86710937 262.59375 395.66796875 C261.26942582 397.2327952 259.92000812 398.77637239 258.5625 400.3125 C259.3978125 401.116875 259.3978125 401.116875 260.25 401.9375 C265.21897368 407.04077027 268.81796737 412.02884488 272 418.375 C272.32935547 419.02275391 272.65871094 419.67050781 272.99804688 420.33789062 C279.13824265 433.11821461 279.86942091 449.82625587 275.9375 463.375 C275.19866977 465.37449161 274.40725248 467.35540264 273.5625 469.3125 C273.12679688 470.33601563 272.69109375 471.35953125 272.2421875 472.4140625 C268.93090669 479.5613626 264.70564114 485.38414647 259.5625 491.3125 C258.96953125 492.04984375 258.3765625 492.7871875 257.765625 493.546875 C252.50975473 499.8808725 242.12241632 511.41035041 233.57421875 512.5859375 C232.80722656 512.61945312 232.04023438 512.65296875 231.25 512.6875 C230.49074219 512.73648438 229.73148437 512.78546875 228.94921875 512.8359375 C225.33458735 512.04320328 223.95368482 510.08877074 221.5625 507.3125 C220.45201268 504.79294424 219.56835689 502.47995295 218.765625 499.87109375 C218.53077393 499.15508499 218.29592285 498.43907623 218.05395508 497.70137024 C217.55387198 496.17576023 217.0598335 494.64815749 216.57141113 493.11877441 C215.2943578 489.13273292 213.96203926 485.16547596 212.625 481.19921875 C212.23190643 480.03188705 212.23190643 480.03188705 211.83087158 478.8409729 C208.71703017 469.68960227 204.89410997 460.94889244 200.5625 452.3125 C200.23330566 451.64460449 199.90411133 450.97670898 199.56494141 450.28857422 C192.79139283 436.6438949 184.45861867 423.90342639 174.5625 412.3125 C173.51835938 411.08466797 173.51835938 411.08466797 172.453125 409.83203125 C167.61425714 404.2982196 162.44609045 399.40050594 156.84765625 394.63671875 C154.39861084 392.14580932 153.35804358 390.6998145 152.5625 387.3125 C152.87997802 382.72001624 154.00979516 378.46520207 155.27636719 374.06420898 C161.44804524 352.46105674 162.2672824 330.62163532 162.5267334 308.29382324 C162.56677029 304.95654995 162.61422483 301.61941011 162.66113281 298.28222656 C162.74819469 291.75842322 162.80559344 285.23478917 162.84658813 278.71054077 C162.86533653 276.09706279 162.89040999 273.48362153 162.92221069 270.87026978 C163.17213731 248.92087377 161.49564085 230.13402783 149.75 211 C147.09543206 206.56993672 145.48587711 203.58795215 146.5625 198.3125 C147.6875 195.9375 147.6875 195.9375 149.5625 193.3125 C158.19282645 181.20103347 162.46169507 169.29496515 160.26220703 154.25976562 C158.4490706 144.23554639 155.28086749 135.35603769 150.5625 126.3125 C137.76968944 127.95595596 126.57179155 137.34943169 118.375 146.875 C114.56136984 151.84213558 111.87310835 157.28887348 109.26293945 162.95532227 C107.65192521 166.41072785 106.80579214 168.15030524 103.5625 170.3125 C94.21996463 171.86287764 83.76533351 168.89984705 74.5625 167.3125 C74.64773926 167.91360596 74.73297852 168.51471191 74.82080078 169.1340332 C74.92376465 169.93156006 75.02672852 170.72908691 75.1328125 171.55078125 C75.23867676 172.33751221 75.34454102 173.12424316 75.45361328 173.93481445 C75.692277 179.14635237 73.33836094 183.08613915 70.625 187.375 C63.72474298 194.82001415 54.79900369 197.65112824 45.3125 200.125 C36.41690891 202.4990645 32.54592286 205.46173083 27.5625 213.3125 C18.48850916 223.30202803 5.44390616 229.17631171 -7.4375 232.3125 C-8.21480469 232.50199219 -8.99210937 232.69148437 -9.79296875 232.88671875 C-28.34782142 235.87413225 -47.42087657 231.0107789 -65.16015625 225.87426758 C-67.53201379 225.19275119 -67.53201379 225.19275119 -70.4375 225.3125 C-78.11494082 242.70564026 -81.64455659 261.72460606 -84.61328125 280.40283203 C-86.05065448 288.91366165 -88.74146514 293.72619042 -94.75 299.9375 C-106.2354442 312.6110936 -112.80057292 329.11992952 -112.4375 346.3125 C-111.00979343 367.07686404 -100.77887252 383.58107999 -86.06640625 397.56640625 C-66.20447957 414.68182705 -37.50350024 419.95400915 -12.00585938 419.18823242 C-6.61629083 419.08988751 -3.12279446 419.76385103 0.875 423.4375 C3.02715403 427.10413279 2.99385697 430.19287371 2.5625 434.3125 C1.4609375 437.71484375 1.4609375 437.71484375 -0.0625 441.25 C-6.90898718 458.29164415 -9.917753 476.66738508 -12.70141602 494.74291992 C-12.88631592 495.90412354 -13.07121582 497.06532715 -13.26171875 498.26171875 C-13.41729248 499.28612061 -13.57286621 500.31052246 -13.7331543 501.3659668 C-14.89627372 506.23171664 -16.22803288 509.50618858 -20.4375 512.3125 C-25.43370813 513.11697419 -29.25382667 513.10966775 -33.5 510.25 C-38.32911847 502.92843328 -35.85361555 494.76805448 -34.4375 486.625 C-34.32789948 485.97730652 -34.21829895 485.32961304 -34.1053772 484.66229248 C-31.6731974 470.34459617 -28.20848928 456.33397641 -24.4375 442.3125 C-25.25557129 442.18915283 -26.07364258 442.06580566 -26.91650391 441.9387207 C-56.28918958 437.47136783 -81.50198951 431.11491025 -104.4375 411.3125 C-105.12070313 410.73113281 -105.80390625 410.14976562 -106.5078125 409.55078125 C-123.01167542 394.31349385 -133.61519684 370.51663871 -134.66015625 348.3046875 C-135.39577102 323.34244449 -126.07790818 302.26404451 -110.4375 283.3125 C-109.66684204 282.67658936 -109.66684204 282.67658936 -108.88061523 282.02783203 C-106.80088891 279.55580409 -106.61694646 277.2860574 -106.078125 274.1171875 C-105.85286133 272.85503418 -105.62759766 271.59288086 -105.39550781 270.29248047 C-105.28033813 269.62263123 -105.16516846 268.95278198 -105.04650879 268.26263428 C-103.11288842 257.08596668 -100.80270297 246.10381325 -97.6875 235.1875 C-97.39391602 234.15866699 -97.10033203 233.12983398 -96.79785156 232.06982422 C-95.76105223 228.52253218 -94.73885368 225.04693282 -93.33496094 221.62548828 C-92.25116916 218.83227738 -92.30630302 218.05969266 -93.4375 215.3125 C-94.118125 214.3225 -94.79875 213.3325 -95.5 212.3125 C-98.44650326 207.31531682 -98.20358019 201.92520997 -97.4375 196.3125 C-95.11422369 191.39787703 -91.69476575 188.61405303 -87.4375 185.3125 C-86.48875 184.549375 -85.54 183.78625 -84.5625 183 C-83.86125 182.443125 -83.16 181.88625 -82.4375 181.3125 C-82.76363281 180.70664063 -83.08976562 180.10078125 -83.42578125 179.4765625 C-93.51534203 160.13079699 -93.87677003 137.89981306 -87.80322266 117.14501953 C-81.91678326 98.61085898 -81.91678326 98.61085898 -73.66015625 93.640625 C-65.18982392 90.14982137 -55.35334396 91.94117196 -46.9296875 94.85546875 C-34.93721347 99.85904013 -23.43074655 106.00317451 -14.36328125 115.48046875 C-12.47591018 117.53567841 -12.47591018 117.53567841 -9.4375 118.3125 C-9.78683594 117.50425781 -10.13617188 116.69601563 -10.49609375 115.86328125 C-10.95113281 114.79464844 -11.40617187 113.72601563 -11.875 112.625 C-12.32746094 111.56925781 -12.77992188 110.51351562 -13.24609375 109.42578125 C-15.54618386 103.41538186 -15.6203155 97.86622986 -15.625 91.5 C-15.63724609 90.63568359 -15.64949219 89.77136719 -15.66210938 88.88085938 C-15.67131546 84.81483991 -15.53010939 81.20342084 -14.37109375 77.29296875 C-13.03674475 72.55237773 -13.69956101 68.26378781 -14.3125 63.4375 C-15.69501257 50.71162973 -15.69394186 38.09764783 -15.4375 25.3125 C-15.42444824 24.08587646 -15.42444824 24.08587646 -15.41113281 22.83447266 C-15.22163431 7.97190904 -15.22163431 7.97190904 -9.4375 2.3125 C-6.29096321 0.2820425 -3.71108061 0.01544139 0 0 Z M6.5625 46.3125 C6.29944048 54.5550317 6.95635449 62.22441011 8.5625 70.3125 C11.5325 71.3025 14.5025 72.2925 17.5625 73.3125 C15.04070027 63.9670069 11.32934131 55.20843757 7.5625 46.3125 C7.2325 46.3125 6.9025 46.3125 6.5625 46.3125 Z M6.5625 84.3125 C4.82508244 86.04991756 5.3078241 88.31975511 5.25 90.6875 C5.34906465 97.07335966 5.99384395 102.87543765 9.5625 108.3125 C12.64933473 110.54951788 15.90716801 111.34197761 19.5625 112.3125 C20.96833581 112.75084977 22.37184761 113.19669574 23.7734375 113.6484375 C27.69195175 114.9086414 31.62291396 116.11987098 35.5625 117.3125 C35.76306588 108.29817787 34.23474684 100.04858956 28.34765625 92.9609375 C22.54164962 87.59959221 14.01883951 86.15219498 6.5625 84.3125 Z M56.5625 110.3125 C55.76051605 117.9424862 55.44186369 123.77493714 60.25 130.0625 C60.98089844 130.93132812 61.71179688 131.80015625 62.46484375 132.6953125 C65.12816982 136.01827053 66.70986381 139.51186066 68.359375 143.4140625 C69.37572412 145.45956431 69.37572412 145.45956431 71.35351562 145.91137695 C73.62522018 146.32388917 75.80345203 146.51984233 78.109375 146.62890625 C79.37587891 146.69174805 79.37587891 146.69174805 80.66796875 146.75585938 C81.54066406 146.79517578 82.41335937 146.83449219 83.3125 146.875 C84.20066406 146.91818359 85.08882812 146.96136719 86.00390625 147.00585938 C88.18995963 147.11163615 90.37612089 147.21372546 92.5625 147.3125 C93.18898438 146.32507813 93.81546875 145.33765625 94.4609375 144.3203125 C95.28632418 143.02595611 96.11185239 141.73168996 96.9375 140.4375 C97.55625 139.46103516 97.55625 139.46103516 98.1875 138.46484375 C99.84252854 135.87552491 101.38247379 133.49252621 103.5625 131.3125 C103.35773502 122.91713579 97.38687788 114.98279381 91.5625 109.3125 C80.58670322 101.47264516 67.90414943 105.61477538 56.5625 110.3125 Z M-63.4375 113.3125 C-69.96021834 129.69398345 -72.81103385 146.0687418 -67.4375 163.3125 C-66.7775 163.3125 -66.1175 163.3125 -65.4375 163.3125 C-65.20675781 162.78930176 -64.97601563 162.26610352 -64.73828125 161.72705078 C-58.46354449 147.63679457 -51.98601285 133.58675643 -37.4375 126.3125 C-38.82881773 122.1385468 -41.67572067 121.17982571 -45.375 119.25 C-46.04926025 118.89292969 -46.72352051 118.53585938 -47.41821289 118.16796875 C-52.61512067 115.51475521 -57.59238671 113.86262831 -63.4375 113.3125 Z M17.5625 125.3125 C20.03848036 127.89164621 22.63486997 130.21212444 25.375 132.5 C32.17408398 138.47915734 36.14545351 143.88417444 38.875 152.5625 C40.71821337 157.31805671 40.71821337 157.31805671 44.58251953 160.42675781 C49.76787935 162.39099058 55.10196942 163.4310307 60.5625 164.3125 C59.67559867 154.33791593 56.98231503 143.57685224 49.5625 136.3125 C43.32533671 132.85545795 36.37539353 130.77309971 29.625 128.5625 C28.68076172 128.24667969 27.73652344 127.93085937 26.76367188 127.60546875 C22.25470935 125.95278468 22.25470935 125.95278468 17.5625 125.3125 Z M-40.60546875 144.33203125 C-45.50546635 149.62904358 -48.35237544 156.06937499 -51.296875 162.57495117 C-54.8422737 170.38590768 -58.52431438 176.981093 -64.4375 183.3125 C-65.06269531 184.00472656 -65.68789062 184.69695312 -66.33203125 185.41015625 C-70.82243184 190.15662857 -75.75008827 193.78496139 -81.21484375 197.35546875 C-83.59963579 199.15513259 -83.59963579 199.15513259 -84.44140625 201.86328125 C-84.67838202 204.30039119 -84.67838202 204.30039119 -83.3125 205.84667969 C-80.8138225 207.80007288 -78.49339203 208.38551864 -75.43359375 209.21484375 C-73.62193726 209.71165649 -73.62193726 209.71165649 -71.77368164 210.21850586 C-70.47426944 210.56289744 -69.17470587 210.90671835 -67.875 211.25 C-66.55515486 211.60582192 -65.23541229 211.96202452 -63.91577148 212.31860352 C-29.01930255 221.97122752 -29.01930255 221.97122752 5.4375 213.5625 C16.73001504 206.86071066 25.78422573 197.13501048 29.8984375 184.48828125 C32.2910321 173.04604943 31.424376 161.58786307 25.5625 151.3125 C18.44549032 141.40099716 8.75982486 133.87362488 -3.40625 131.80859375 C-17.73305124 130.18830075 -30.07052889 134.5866924 -40.60546875 144.33203125 Z M44.5625 173.3125 C44.19909714 175.08146102 43.84709117 176.85276626 43.5 178.625 C43.30277344 179.61113281 43.10554687 180.59726563 42.90234375 181.61328125 C42.35327784 184.40526461 42.35327784 184.40526461 43.5625 187.3125 C49.8221795 185.09810745 54.71987054 182.90025423 59.5625 178.3125 C56.39683427 176.20205618 54.05052585 175.55697923 50.375 174.6875 C49.28832031 174.42710937 48.20164063 174.16671875 47.08203125 173.8984375 C46.25058594 173.70507812 45.41914063 173.51171875 44.5625 173.3125 Z M179.5625 183.3125 C179.24796875 184.10914063 178.9334375 184.90578125 178.609375 185.7265625 C174.68970509 195.43128739 174.68970509 195.43128739 172.125 198.6875 C171.609375 199.55375 171.09375 200.42 170.5625 201.3125 C171.67327063 205.57045409 173.5097205 209.4032835 175.375 213.375 C178.08418337 219.44156084 179.83935844 225.60594224 181.375 232.0625 C181.58165283 232.92496338 181.78830566 233.78742676 182.0012207 234.67602539 C184.56381487 245.96371949 184.66406418 257.02778562 184.4765625 268.5546875 C184.45471577 270.12915516 184.43327002 271.70362843 184.41220093 273.27810669 C184.36691246 276.57120992 184.31775776 279.86422473 184.265625 283.15722656 C184.19994051 287.31673986 184.14241346 291.47631528 184.08746147 295.63598251 C183.47357786 341.67200135 183.47357786 341.67200135 181.1875 356.3125 C180.99559082 357.61574219 180.99559082 357.61574219 180.79980469 358.9453125 C179.91370932 364.72325798 178.71574844 370.33709338 177.015625 375.9375 C176.46728883 378.81153787 176.62315234 380.53876588 177.5625 383.3125 C179.30670619 385.46598496 179.30670619 385.46598496 181.5625 387.4375 C196.04257007 401.34748857 207.24293121 418.62830874 216.5625 436.3125 C216.89701172 436.93382812 217.23152344 437.55515625 217.57617188 438.1953125 C223.98137833 450.13172063 228.7990551 462.64864851 233.5625 475.3125 C233.86849121 476.12589844 234.17448242 476.93929688 234.48974609 477.77734375 C235.18223074 479.6218084 235.87263409 481.46705429 236.5625 483.3125 C246.24611457 475.80275809 254.25347726 464.58064102 256.5625 452.3125 C257.55187987 440.63457369 255.65154828 430.16396737 248.05859375 420.98046875 C244.77305623 417.31748044 241.45007779 414.17787652 237.5 411.25 C229.88800563 405.59127211 229.88800563 405.59127211 228.6875 400.875 C228.5571506 397.16004201 228.83835423 395.54654858 230.5625 392.3125 C232.8125 390.64453125 232.8125 390.64453125 235.5625 389.125 C250.41427321 380.1245144 259.96599217 365.79774533 264.12890625 349.03125 C269.84797366 322.84609134 262.76348122 293.70765004 249.046875 271.04296875 C238.37190977 254.41991289 223.33106663 244.39121076 204.41015625 239.40234375 C201.16261654 238.15945818 199.76899113 236.97883324 197.5625 234.3125 C196.98828125 231.87744141 196.98828125 231.87744141 196.875 229.1640625 C196.79040527 227.66564819 196.79040527 227.66564819 196.70410156 226.13696289 C196.65737305 225.08114014 196.61064453 224.02531738 196.5625 222.9375 C195.60262507 208.11804847 193.37195965 196.20660683 183.3125 184.75 C181.68237606 183.10092019 181.68237606 183.10092019 179.5625 183.3125 Z " fill="#000000" transform="translate(168.4375,-0.3125)"/>
<path d="M0 0 C0.78375 0.04125 1.5675 0.0825 2.375 0.125 C3.10932084 1.83112418 3.8370194 3.54009804 4.5625 5.25 C5.03429687 6.34054688 5.50609375 7.43109375 5.9921875 8.5546875 C7.375 12.125 7.375 12.125 8.2578125 15.7578125 C9.69142679 21.33565633 10.92561979 25.54477722 15.96875 28.6484375 C19.31929261 30.42227732 22.76789885 31.88807026 26.29541016 33.27050781 C29.75564764 34.69230063 33.04756341 36.41843118 36.375 38.125 C36.875 40.8125 36.875 40.8125 36.375 44.125 C30.93596819 49.61347755 21.47516895 52.41351816 14.375 55.125 C13.715 55.125 13.055 55.125 12.375 55.125 C12.22804688 55.64964844 12.08109375 56.17429688 11.9296875 56.71484375 C10.22386217 62.60680365 8.28052452 68.40117266 6.25 74.1875 C5.98429199 74.9498999 5.71858398 75.7122998 5.44482422 76.49780273 C3.49675378 82.00324622 3.49675378 82.00324622 2.375 83.125 C0 83.5 0 83.5 -2.625 83.125 C-5.09412541 80.04669404 -5.9860813 76.93776724 -6.89453125 73.17578125 C-9.4545935 62.49683144 -9.4545935 62.49683144 -16.11767578 54.15576172 C-21.62922952 51.01209288 -27.45812662 48.80790149 -33.50537109 46.92089844 C-35.625 46.125 -35.625 46.125 -37.625 44.125 C-38.125 41.75 -38.125 41.75 -37.625 39.125 C-34.32236184 36.46728646 -31.49722664 34.98055944 -27.41796875 33.86328125 C-21.09368138 32.00552184 -15.49822332 30.23286017 -11.94775391 24.34228516 C-9.11503537 17.93792014 -7.12485552 11.29738868 -5.39257812 4.52001953 C-4.32149631 1.17799897 -3.57072138 0.17003435 0 0 Z " fill="#000000" transform="translate(464.625,99.875)"/>
<path d="M0 0 C7.03664188 5.54282964 10.70388036 12.4160905 11.84765625 21.27734375 C12.0657125 25.82445783 11.6044233 28.75976212 8.84765625 32.52734375 C2.16568771 39.40584077 -8.07368778 40.47041443 -17.21484375 40.77734375 C-26.79237551 40.65861402 -37.8541925 39.28914793 -45.15234375 32.52734375 C-48.19113455 28.15908197 -48.7552133 24.78092122 -48.15234375 19.52734375 C-45.81724602 10.2425504 -41.6123327 4.05816834 -34.15234375 -1.84765625 C-22.95434924 -7.91323661 -10.41757947 -7.12781754 0 0 Z M-32.15234375 14.52734375 C-34.0101114 17.66232667 -34.35374851 19.90205807 -34.15234375 23.52734375 C-24.60933346 28.51573549 -14.39903471 28.20837759 -4.15234375 25.52734375 C-3.49234375 25.19734375 -2.83234375 24.86734375 -2.15234375 24.52734375 C-1.744847 20.27002807 -1.744847 20.27002807 -3.65234375 16.65234375 C-4.14734375 16.28109375 -4.64234375 15.90984375 -5.15234375 15.52734375 C-5.75046875 16.00171875 -6.34859375 16.47609375 -6.96484375 16.96484375 C-11.83094456 20.44063005 -17.40745764 20.00402958 -23.15234375 19.52734375 C-26.58561017 18.17856051 -29.09259676 16.56717508 -32.15234375 14.52734375 Z " fill="#000000" transform="translate(141.15234375,261.47265625)"/>
<path d="M0 0 C6.0166752 6.6752723 8.54613538 12.73517046 9.3125 21.625 C8.94345436 25.61069287 8.29288079 27.70398386 6 31 C-1.87740162 37.42256619 -9.98298114 38.34600211 -19.8125 38.3125 C-21.21338867 38.33666992 -21.21338867 38.33666992 -22.64257812 38.36132812 C-32.57083565 38.36821796 -41.48489417 36.32492977 -48.8125 29.25 C-51.56409642 24.0364489 -51.33092945 19.38449266 -49.8125 13.875 C-46.97908445 5.58978934 -41.74158418 -0.62620588 -34.171875 -5.07421875 C-22.74179427 -10.35162089 -9.52127125 -7.99194789 0 0 Z M-34 12 C-36.40814077 15.51187196 -37.36629408 17.72656908 -37 22 C-27.93198877 25.88629053 -16.42365431 27.02757113 -7 23.5 C-6.01 23.005 -5.02 22.51 -4 22 C-4.99 19.03 -5.98 16.06 -7 13 C-7.763125 13.309375 -8.52625 13.61875 -9.3125 13.9375 C-15.43345252 16.35741146 -21.28490735 17.25111208 -27.65625 15.10546875 C-29.81601839 14.13835727 -31.91910018 13.12589749 -34 12 Z " fill="#000000" transform="translate(256,273)"/>
<path d="M0 0 C2.609375 1.12890625 2.609375 1.12890625 3.40039062 2.86767578 C4.08747723 5.30066433 4.72144403 7.7450935 5.359375 10.19140625 C7.06027806 15.81646868 8.54181266 20.00585067 13.8046875 23.02734375 C16.81746708 24.45914407 19.88757748 25.57218654 23.0390625 26.65625 C24.21726563 27.14222656 25.39546875 27.62820312 26.609375 28.12890625 C27.39404297 30.12133789 27.39404297 30.12133789 27.609375 32.12890625 C25.6725239 35.26476041 22.72237062 35.80919318 19.36669922 36.91748047 C14.83201586 38.5246402 10.87199489 40.03021447 8.30566406 44.29589844 C6.85335217 47.68462619 5.732804 51.07940772 4.77636719 54.63867188 C3.55795743 59.12086812 3.55795743 59.12086812 2.609375 61.12890625 C-0.0703125 62.19921875 -0.0703125 62.19921875 -2.390625 62.12890625 C-2.97938079 60.86057595 -3.56115715 59.5890068 -4.140625 58.31640625 C-4.52347656 57.4965625 -4.90632813 56.67671875 -5.30078125 55.83203125 C-6.390625 53.12890625 -6.390625 53.12890625 -6.94921875 50.36328125 C-7.84698612 46.37072575 -8.62566722 43.27641226 -12.21484375 40.94287109 C-15.23491896 39.39555698 -18.28577375 38.05354579 -21.4597168 36.85327148 C-23.54338163 36.04682981 -25.48367409 35.29468236 -27.390625 34.12890625 C-28.41015625 31.40234375 -28.41015625 31.40234375 -28.390625 29.12890625 C-25.71200837 27.37635411 -23.38049284 26.12582813 -20.3046875 25.19140625 C-15.53205188 23.64965223 -11.74794882 22.40386482 -9.12597656 18.00927734 C-6.93694108 13.12030217 -5.34873113 8.05420819 -3.94042969 2.89135742 C-3.10587325 0.21610745 -2.8772322 0.15514487 0 0 Z " fill="#000000" transform="translate(68.390625,0.87109375)"/>
<path d="M0 0 C2.93087207 2.25451698 3.82814288 3.48442865 5 7 C5.45507382 11.09566442 5.59588455 13.18562444 3.125 16.5625 C0.46398562 18.63809121 -2.08844207 20.26009498 -5 21.9375 C-10.21825675 24.96795429 -12.87102577 27.97461556 -16.3359375 32.8984375 C-19.90457413 37.95228707 -19.90457413 37.95228707 -22 39 C-26.63213493 39.55512815 -29.98172127 39.6364242 -34 37.125 C-36.99398164 33.94389451 -37.4150884 31.65839738 -37.3359375 27.2734375 C-36.17118264 19.39102668 -29.7248756 12.15332501 -24 7 C-16.223937 1.66955373 -9.49907599 -2.55519293 0 0 Z " fill="#000000" transform="translate(162,139)"/>
<path d="M0 0 C3.42781751 3.0732157 3.5737789 6.56730061 4 11 C6.88563065 11.88172048 8.39571626 12.27624399 11.1875 11 C13.28381117 8.98300314 13.28381117 8.98300314 14 5.5 C15 2 15 2 16.75 0 C19.95448785 -1.42421682 21.70571614 -1.12145834 25 0 C27 1.9375 27 1.9375 28 5 C27.72932436 11.6653876 25.65269372 17.20023838 21 22 C15.82912355 25.78356814 11.35236531 26.43066883 5 26 C-1.27174256 23.94546365 -4.8146047 20.88784378 -8.75 15.6875 C-10.39429498 12.15226579 -11.15007336 8.90980589 -11 5 C-8.39258371 -0.83564599 -6.09850767 -1.61797142 0 0 Z " fill="#000000" transform="translate(153,322)"/>
<path d="M0 0 C3.38757232 2.76536516 4.69786263 4.16664219 5.40234375 8.44140625 C5.58492956 13.34200937 5.35367458 17.18374962 2 21 C-1.69364263 24.15045989 -5.08477861 24.51984525 -9.78125 24.35546875 C-13.26723014 23.79697545 -15.38200616 22.29872629 -18 20 C-20.73404041 15.568969 -20.77352171 11.05580169 -20 6 C-18.27773176 2.37806249 -15.76468818 0.41710264 -12.25 -1.5 C-7.76627926 -2.18980319 -4.1986331 -1.72884892 0 0 Z " fill="#000000" transform="translate(31,98)"/>
<path d="M0 0 C2.8100346 1.79363911 4.50940468 3.01880935 6 6 C6.5811138 13.08958838 6.5811138 13.08958838 4.125 16.9375 C1.18758332 19.78852207 0.38852666 19.96815355 -3.8125 20.3125 C-6.83292415 20.24659984 -8.13081976 19.93598182 -10.9375 18.5625 C-13.86456793 14.92583984 -14.29634084 11.60974641 -14 7 C-11.25508845 0.54945786 -6.75038302 -1.10532587 0 0 Z " fill="#000000" transform="translate(394,67)"/>
</svg>
