<?xml version="1.0" encoding="UTF-8"?>
<svg version="1.1" xmlns="http://www.w3.org/2000/svg" width="512" height="512">
<path d="M0 0 C1.35544922 -0.07734375 1.35544922 -0.07734375 2.73828125 -0.15625 C7.20546688 0.83777276 9.74010622 3.05235856 12.6875 6.5 C14.93242062 10.0870601 16.690362 13.83763566 18.4375 17.6875 C18.94555176 18.77812744 19.45360352 19.86875488 19.97705078 20.99243164 C27.46375051 37.26690875 34.33958356 53.75838071 39.61376953 70.88330078 C41.23952054 75.86758936 43.30281101 79.36531747 47.171875 82.89453125 C49.06467797 84.89953645 49.7924489 86.91575932 50.6875 89.5 C51.68007813 89.15066406 52.67265625 88.80132812 53.6953125 88.44140625 C68.09297127 83.54702305 82.37951738 81.10360501 96.75 87.5625 C108.20640615 93.78169191 115.18136298 103.54638423 121.6875 114.5 C122.59371094 113.95730469 123.49992187 113.41460937 124.43359375 112.85546875 C135.07180722 106.56565798 143.90957789 101.99671505 156.6875 103.5 C165.05991913 106.4303467 169.47120355 114.18968552 173.38671875 121.8046875 C178.12887891 132.34016674 181.35135461 143.10424378 182.3125 154.625 C182.85101851 159.01650525 182.85101851 159.01650525 185.71484375 162.13671875 C187.43727541 162.9355661 189.1888929 163.67371672 190.9609375 164.35546875 C200.2923851 168.27253773 206.6155495 177.45466358 210.53613281 186.44628906 C215.17328351 197.90812751 216.89781644 209.21905907 217.6875 221.5 C218.28175781 221.64695313 218.87601562 221.79390625 219.48828125 221.9453125 C230.94178588 225.04470566 239.69605178 230.92017846 248.6875 238.5 C249.52023437 239.139375 250.35296875 239.77875 251.2109375 240.4375 C272.96428313 258.55385093 283.29129619 290.37423191 286.6875 317.5 C288.74064963 347.16642588 283.23899207 371.31297819 263.8125 394.125 C260.97840909 397.35454545 260.97840909 397.35454545 258.6875 398.5 C260.16374792 401.81402595 262.078265 404.25670349 264.4375 407 C276.00972313 421.32351393 279.32464346 437.49142193 277.6875 455.5 C273.91863595 477.75424487 257.91303397 496.3655938 240.4375 509.8125 C236.52429687 512.37039863 233.45148743 513.25034116 228.79296875 513.13671875 C225.72048663 512.20756367 224.02213606 510.70123473 221.6875 508.5 C220.28466797 505.41333008 220.28466797 505.41333008 219.1796875 501.76953125 C218.75196917 500.4077098 218.3242341 499.04589362 217.89648438 497.68408203 C217.57103638 496.6145932 217.57103638 496.6145932 217.23901367 495.52349854 C216.08894378 491.76481197 214.87192786 488.0282998 213.6484375 484.29296875 C213.40256897 483.54221069 213.15670044 482.79145264 212.90338135 482.01794434 C203.31273311 453.11149616 187.22465517 421.5761063 163.9140625 401.11328125 C163.27500977 400.5500415 162.63595703 399.98680176 161.97753906 399.40649414 C160.73567369 398.3322901 159.47525926 397.27902556 158.19433594 396.25170898 C154.93852351 393.46042303 153.29789097 391.41501692 152.6484375 387.10546875 C152.45121114 382.55973464 153.43643793 378.81345012 154.9375 374.5625 C156.90774034 368.46185984 158.41277417 362.45557328 159.4375 356.125 C159.55254883 355.42511963 159.66759766 354.72523926 159.78613281 354.00415039 C161.7120229 341.55132184 161.98821493 329.0738473 162.25 316.5 C162.27018188 315.54967896 162.29036377 314.59935791 162.31115723 313.62023926 C162.45742221 306.58046764 162.57935235 299.54045446 162.6875 292.5 C162.70294861 291.50589111 162.71839722 290.51178223 162.73431396 289.48754883 C162.82113509 283.6618393 162.88445561 277.83651475 162.91867065 272.01025391 C162.93103287 270.19803693 162.94838864 268.38584576 162.97122192 266.57373047 C163.13758302 252.5620287 162.41827828 238.86691881 156.9375 225.75 C156.68726074 225.1420459 156.43702148 224.5340918 156.17919922 223.90771484 C154.40242785 219.73867497 152.21124245 215.96104561 149.8125 212.125 C147.37244259 208.01629346 145.47273626 204.76168978 145.859375 199.90234375 C147.21962015 195.95634956 149.71148603 192.76735988 152.18554688 189.453125 C160.64412459 178.04139456 161.72183281 165.21313066 159.6875 151.5 C159.04728669 148.43691607 158.25322928 145.44038132 157.375 142.4375 C157.17438965 141.74809326 156.9737793 141.05868652 156.76708984 140.34838867 C155.67317675 136.86286465 154.36848279 133.78491741 152.51953125 130.62890625 C150.6875 127.5 150.6875 127.5 150.6875 125.5 C135.09498605 129.76407524 121.00580587 140.92029946 112.98828125 154.90234375 C111.6700772 157.53479328 110.6347712 160.17370392 109.625 162.9375 C108.47165769 165.9240002 107.82850472 167.36302399 105.5 169.625 C98.42629462 171.82570834 90.77226438 170.23094856 83.625 169 C82.75939453 168.85691406 81.89378906 168.71382812 81.00195312 168.56640625 C78.8960603 168.21736324 76.79161505 167.85960461 74.6875 167.5 C74.73390625 168.36882812 74.7803125 169.23765625 74.828125 170.1328125 C75.12219175 179.52194357 75.12219175 179.52194357 73.1875 183.875 C66.0281055 191.39236423 58.86832601 197.0721119 48.5859375 199.53125 C39.33802055 201.7665721 34.40612694 203.61438059 28.703125 211.72265625 C19.77765637 224.02112175 3.38924523 230.65333667 -11.22509766 233.19824219 C-31.36012424 236.10898989 -52.09511652 230.09335227 -71.3125 224.5 C-71.47105469 225.09683594 -71.62960938 225.69367188 -71.79296875 226.30859375 C-72.93100307 230.54006942 -74.07238632 234.75326347 -75.4140625 238.92578125 C-78.95113986 249.98205679 -81.14462253 261.23994785 -83.25708008 272.63574219 C-83.92937694 276.25974673 -84.61699227 279.88038869 -85.3125 283.5 C-85.46259521 284.33281494 -85.61269043 285.16562988 -85.76733398 286.02368164 C-86.7564609 290.82599718 -88.53249922 293.39810031 -92 296.8125 C-104.77213014 310.15514316 -111.91378108 326.40131393 -112.75 344.9375 C-112.16648087 361.32466223 -105.16859198 377.36403191 -94.3125 389.5 C-93.66925781 390.23605469 -93.02601562 390.97210938 -92.36328125 391.73046875 C-74.52378352 410.88896816 -47.78732642 418.33172771 -22.3125 419.5 C-20.96737417 419.49323547 -19.62227526 419.47696797 -18.27734375 419.453125 C-17.57061523 419.44200684 -16.86388672 419.43088867 -16.13574219 419.41943359 C-14.09398805 419.3769554 -12.05278332 419.31015635 -10.01171875 419.2421875 C-5.06598637 419.58687423 -1.72763079 420.94792107 1.625 424.625 C4.13113976 431.40631936 1.40040936 437.51379415 -1 443.9375 C-7.17204668 460.56726718 -10.41764953 478.24531136 -12.93212891 495.76000977 C-13.82684642 501.71602146 -15.00974266 506.42965688 -18.6953125 511.34375 C-21.56038753 513.39220945 -24.45708572 513.01919337 -27.86328125 512.9296875 C-31.55629756 512.2817899 -33.13978537 510.44367789 -35.3125 507.5 C-39.27544003 499.57411994 -34.205637 485.39707562 -32.5625 476.875 C-32.43099548 476.18043701 -32.29949097 475.48587402 -32.16400146 474.77026367 C-30.03483989 463.5433647 -27.50868992 452.47452824 -24.3125 441.5 C-26.11267578 441.37044922 -26.11267578 441.37044922 -27.94921875 441.23828125 C-59.5474335 438.68760901 -86.78445885 429.31441455 -109.3125 406.5 C-109.99828125 405.81292969 -110.6840625 405.12585938 -111.390625 404.41796875 C-128.71212964 385.88707978 -135.14280194 361.77508433 -134.44433594 337.10888672 C-133.4875662 318.17547678 -125.03574161 299.1063973 -111.5625 285.8125 C-105.34823263 278.48009456 -105.01177822 269.01960573 -103.5625 259.8125 C-102.39701231 252.54762674 -100.65149498 245.52355701 -98.6875 238.4375 C-98.39794434 237.3868335 -98.10838867 236.33616699 -97.81005859 235.25366211 C-96.72182963 231.35912906 -95.63163324 227.47643632 -94.37524414 223.63232422 C-94.08512451 222.73916504 -93.79500488 221.84600586 -93.49609375 220.92578125 C-93.22853271 220.13727783 -92.96097168 219.34877441 -92.68530273 218.53637695 C-92.03520351 216.26512741 -92.03520351 216.26512741 -94 213.75 C-95.1446875 212.63625 -95.1446875 212.63625 -96.3125 211.5 C-98.76329074 206.36500987 -98.57604799 201.92470604 -97.3125 196.5 C-94.53255412 189.48970171 -89.57728982 186.43342719 -83.3125 182.5 C-84.7259988 178.02392046 -86.44086776 173.7520303 -88.3125 169.453125 C-90.93927446 161.69593167 -91.67518196 154.02556814 -91.625 145.875 C-91.61762817 144.44039429 -91.61762817 144.44039429 -91.61010742 142.97680664 C-91.35092516 127.08959869 -88.35648156 108.6959615 -77.3125 96.5 C-71.21713251 91.61334561 -65.93502019 91.58051898 -58.34130859 92.22949219 C-42.40322457 94.35457006 -25.37073791 104.21160723 -14.16015625 115.70703125 C-12.34134668 117.73134503 -12.34134668 117.73134503 -9.3125 118.5 C-9.81910156 117.39205078 -9.81910156 117.39205078 -10.3359375 116.26171875 C-15.83591793 103.75164766 -17.82743259 92.76476945 -14.6875 79.4375 C-13.5049876 73.89946651 -13.29661686 69.76678015 -14.2109375 64.109375 C-15.38101377 56.06685068 -15.61938355 48.17168442 -15.57324219 40.0534668 C-15.56245423 37.80295208 -15.57325455 35.55322631 -15.5859375 33.30273438 C-15.61603672 9.35651818 -15.61603672 9.35651818 -9.3125 2.5 C-6.27735407 0.47244834 -3.61955214 0.12287023 0 0 Z M5.6875 44.5 C6.12452605 53.66604626 6.81055882 62.49068234 8.6875 71.5 C13.1425 72.49 13.1425 72.49 17.6875 73.5 C16.60902479 70.35242769 15.52487091 67.20699914 14.4375 64.0625 C14.13714844 63.18400391 13.83679688 62.30550781 13.52734375 61.40039062 C11.52423192 55.62546185 9.26585969 50.04211808 6.6875 44.5 C6.3575 44.5 6.0275 44.5 5.6875 44.5 Z M5.6875 84.5 C4.85936126 97.15657695 4.85936126 97.15657695 9.6875 108.5 C12.80059538 110.63631444 16.07175508 111.499614 19.6875 112.5 C21.09284337 112.94124395 22.49638087 113.38826494 23.8984375 113.83984375 C27.81735385 115.09714106 31.74839941 116.30751793 35.6875 117.5 C35.33862446 108.32457332 33.9435157 99.91043771 27.875 92.6875 C22.56297246 87.78230171 12.92317206 84.5 5.6875 84.5 Z M56.6875 110.5 C55.75934878 119.29434156 55.75934878 119.29434156 57.77734375 127.59765625 C58.78083935 128.63841694 59.82407496 129.64193954 60.8984375 130.609375 C64.16256554 134.05880288 65.98087628 138.5795043 68.07421875 142.8046875 C69.46150742 145.78666948 69.46150742 145.78666948 72.6875 146.5 C74.24016653 146.6464714 75.79745662 146.74694074 77.35546875 146.81640625 C78.69448242 146.87924805 78.69448242 146.87924805 80.06054688 146.94335938 C80.98931641 146.98267578 81.91808594 147.02199219 82.875 147.0625 C83.81537109 147.10568359 84.75574219 147.14886719 85.72460938 147.19335938 C88.04542854 147.29938665 90.36635325 147.40145029 92.6875 147.5 C93.37585938 146.27023438 93.37585938 146.27023438 94.078125 145.015625 C94.69171875 143.93796875 95.3053125 142.8603125 95.9375 141.75 C96.54078125 140.68265625 97.1440625 139.6153125 97.765625 138.515625 C99.6875 135.5 99.6875 135.5 101.984375 133.421875 C103.9756907 131.62325908 103.9756907 131.62325908 103.58203125 129.0625 C100.03839766 118.91130508 95.25150617 111.60604025 85.6875 106.5 C75.46734826 103.09328275 66.14076286 106.58444733 56.6875 110.5 Z M-63.3125 113.5 C-71.05172772 130.19630345 -72.15372117 146.89293966 -67.3125 164.5 C-64.91973977 162.34001005 -63.66629039 160.44166667 -62.4375 157.47265625 C-56.62881785 144.0237255 -50.07590393 133.44167356 -37.3125 125.5 C-40.4558164 122.12015444 -43.97418895 120.4116951 -48.0625 118.375 C-48.7534375 118.01535156 -49.444375 117.65570313 -50.15625 117.28515625 C-54.60119097 115.05433061 -58.35341111 113.92840297 -63.3125 113.5 Z M18.6875 126.5 C20.55306843 128.44330045 22.44075801 130.29735658 24.5234375 132.0078125 C30.55157677 136.9735211 35.30298564 142.24539747 37.7578125 149.7890625 C39.80759466 156.23680547 39.80759466 156.23680547 44.71191406 160.56689453 C49.90473632 162.49243173 55.23973655 163.56919765 60.6875 164.5 C60.25492789 159.14608257 59.6215051 154.42887284 57.5 149.4375 C57.11457031 148.49777344 56.72914063 147.55804688 56.33203125 146.58984375 C55.78933594 145.57019531 55.24664062 144.55054688 54.6875 143.5 C54.34662354 142.84789551 54.00574707 142.19579102 53.65454102 141.52392578 C49.22811507 134.36340743 42.75889233 132.79620721 35 130.5 C33.76443359 130.10683594 32.52886719 129.71367187 31.25585938 129.30859375 C25.08347839 127.24184508 25.08347839 127.24184508 18.6875 126.5 Z M-43.3125 147.5 C-46.11249283 151.97659165 -48.2604823 156.79747106 -50.43945312 161.59765625 C-54.35492491 170.12935539 -59.13586087 177.43925371 -65.3125 184.5 C-65.86679688 185.13808594 -66.42109375 185.77617187 -66.9921875 186.43359375 C-70.38822123 190.08148644 -73.87528057 192.4905665 -78.1875 195 C-81.86146981 197.12487983 -81.86146981 197.12487983 -84.30859375 200.42578125 C-84.74439598 202.52162254 -84.74439598 202.52162254 -84.3125 205.5 C-81.47490596 208.33759404 -78.1154581 208.80436268 -74.33203125 209.77734375 C-73.52698654 209.98935928 -72.72194183 210.20137482 -71.89250183 210.41981506 C-70.17927828 210.8693577 -68.46516074 211.31550476 -66.75024414 211.75854492 C-64.17822123 212.42373563 -61.6094867 213.10053803 -59.04101562 213.77929688 C-36.93570163 219.57675987 -15.32148087 224.92679539 6 213.4375 C17.91423253 205.79685088 25.8939537 195.90295387 30.3515625 182.50390625 C32.40462897 170.25712603 30.08237967 159.2510181 23.4765625 148.88671875 C16.64866335 139.77788386 6.94839799 133.80881253 -4.2421875 131.78125 C-19.09636897 129.76332346 -33.74031237 136.2511553 -43.3125 147.5 Z M43.6875 173.5 C43.3575 178.12 43.0275 182.74 42.6875 187.5 C49.46268622 185.269146 54.56553895 183.48352967 59.6875 178.5 C56.37751895 176.29334596 53.86728564 175.71737905 50 174.875 C47.916875 174.42125 45.83375 173.9675 43.6875 173.5 Z M179.6875 183.5 C178.36747444 186.05886504 177.05636218 188.62167068 175.75 191.1875 C175.37681641 191.90873047 175.00363281 192.62996094 174.61914062 193.37304688 C171.78156543 198.68797863 171.78156543 198.68797863 170.6875 204.5 C171.65243444 206.94586101 172.65695599 209.12709511 173.875 211.4375 C181.39676803 226.59684177 184.01157639 242.12130357 183.91796875 258.921875 C183.91677001 260.31162472 183.91632524 261.70137527 183.9165802 263.09112549 C183.91502399 266.00253402 183.90682069 268.91381815 183.89331055 271.82519531 C183.87663661 275.45392294 183.87257948 279.082512 183.87312508 282.71127319 C183.87257876 297.66326716 183.70401713 312.60217498 183.22265625 327.546875 C183.18206589 328.81343933 183.14147552 330.08000366 183.09965515 331.38494873 C182.48199306 348.97690487 179.69795669 365.36274563 175.6875 382.5 C176.61046875 383.25152344 177.5334375 384.00304687 178.484375 384.77734375 C182.34708269 388.00041784 185.45345003 391.65756439 188.6875 395.5 C189.45191406 396.3765625 190.21632813 397.253125 191.00390625 398.15625 C212.44376325 423.1190882 225.28068119 452.9726772 236.6875 483.5 C247.07432038 475.40306942 254.4643627 463.55063935 256.6875 450.5 C257.77593873 439.40629751 254.21804226 429.38509151 247.6875 420.5 C243.69971051 415.76610795 239.49548186 412.32502509 234.25 409.0625 C229.98196332 406.19306611 229.98196332 406.19306611 228.7265625 403.23828125 C228.17672756 399.54216859 228.28625832 397.36148948 229.8828125 393.93359375 C231.95791895 391.13534415 233.85705438 389.90291902 236.875 388.1875 C251.13209123 379.41966992 259.37674003 366.03892651 263.8125 350.19140625 C269.9730043 324.20177873 262.72504638 295.33675257 249.6875 272.5 C239.42961773 256.24310736 225.14406642 244.79768649 206.38647461 240.27246094 C203.39255795 239.5141915 201.09309509 238.85807081 198.75390625 236.79296875 C196.3831936 231.69550235 196.58708118 226.0262296 196.375 220.5 C195.57028101 207.99590488 192.85386674 194.83822322 184 185.4375 C181.93480644 183.28592671 181.93480644 183.28592671 179.6875 183.5 Z " fill="#000000" transform="translate(210.3125,-0.49999999999999994)"/>
<path d="M0 0 C2.9107964 1.41478918 3.23089058 3.19593563 4.31933594 6.19482422 C4.90908203 7.79390625 4.90908203 7.79390625 5.51074219 9.42529297 C5.90648437 10.54806641 6.30222656 11.67083984 6.70996094 12.82763672 C7.12117188 13.94267578 7.53238281 15.05771484 7.95605469 16.20654297 C10.95996094 24.47975985 10.95996094 24.47975985 10.95996094 27.95263672 C11.78109375 28.21173828 12.60222656 28.47083984 13.44824219 28.73779297 C17.43476717 30.11689116 21.27996193 31.71125005 25.14746094 33.39013672 C26.21383789 33.83969727 26.21383789 33.83969727 27.30175781 34.29833984 C30.74248005 35.79050631 33.55503771 37.04256564 35.95996094 39.95263672 C36.14746094 42.64013672 36.14746094 42.64013672 35.95996094 44.95263672 C32.05371094 46.90576172 28.14746094 48.85888672 24.24121094 50.81201172 C23.18184326 51.36139404 23.18184326 51.36139404 22.10107422 51.921875 C19.95996094 52.95263672 19.95996094 52.95263672 17.81494141 53.66699219 C14.17597696 54.99948656 12.41865516 56.11558984 10.52148438 59.57763672 C9.22660084 62.87852 8.12607205 66.1883261 7.08496094 69.57763672 C6.34187019 71.86289524 5.59467704 74.14682516 4.84277344 76.42919922 C4.52711426 77.44062988 4.21145508 78.45206055 3.88623047 79.49414062 C2.95996094 81.95263672 2.95996094 81.95263672 0.95996094 83.95263672 C-1.41503906 84.14013672 -1.41503906 84.14013672 -4.04003906 82.95263672 C-6.69569611 79.03631758 -7.95756766 74.52181994 -8.84863281 69.92529297 C-10.16840698 64.07252399 -11.34466838 58.8837142 -16.43359375 55.23779297 C-22.02084947 52.19336802 -27.87837968 49.89509745 -33.88867188 47.82788086 C-36.04003906 46.95263672 -36.04003906 46.95263672 -38.04003906 44.95263672 C-38.16503906 41.82763672 -38.16503906 41.82763672 -38.04003906 38.95263672 C-34.13378906 36.99951172 -30.22753906 35.04638672 -26.32128906 33.09326172 C-25.26204224 32.54387939 -25.26204224 32.54387939 -24.18139648 31.98339844 C-22.04003906 30.95263672 -22.04003906 30.95263672 -19.89282227 30.23828125 C-16.25364811 28.90680326 -14.49890557 27.79948407 -12.61767578 24.32763672 C-11.3422067 21.02558333 -10.25475782 17.71499025 -9.22753906 14.32763672 C-8.50055204 12.04100153 -7.76526712 9.75698285 -7.02050781 7.47607422 C-6.71008545 6.46464355 -6.39966309 5.45321289 -6.07983398 4.41113281 C-4.79347036 1.36964851 -3.44864208 -0.08006661 0 0 Z " fill="#000000" transform="translate(465.0400390625,44.04736328125)"/>
<path d="M0 0 C5.08989106 3.9851085 7.82322167 7.84629234 10 14 C10.30583172 16.75248552 10.47979431 19.19918901 10.4375 21.9375 C10.42775146 22.64261719 10.41800293 23.34773438 10.40795898 24.07421875 C10.11842411 32.55415529 7.69659274 36.61201345 1.6875 42.375 C-4.09896265 47.20494427 -9.48523782 48.64782433 -17 48 C-24.56787321 46.61780254 -29.2724503 42.98452174 -34 37 C-38.15393732 29.76410918 -38.99771162 21.2753779 -36.84765625 13.23046875 C-33.97653304 5.67557771 -29.3821275 0.34736146 -22 -3 C-14.1363608 -5.40407116 -6.95274277 -4.31374551 0 0 Z M-22.3125 14.0625 C-24.79021554 18.37556038 -25.00355314 22.14823555 -24 27 C-21.91346155 30.84727189 -19.49026502 33.38208524 -15.4375 35.0625 C-11.31334599 34.95675246 -8.85760063 33.73848943 -5.75 31.0625 C-2.84206308 27.63528863 -2.72083225 24.39591732 -2.77734375 19.99609375 C-3.10170965 17.08818191 -4.23135702 15.29268534 -6 13 C-6.433125 12.4225 -6.86625 11.845 -7.3125 11.25 C-13.1934999 6.89370378 -17.58056049 9.84212152 -22.3125 14.0625 Z " fill="#000000" transform="translate(243,313)"/>
<path d="M0 0 C1.06442825 0.30125793 2.12885651 0.60251587 3.22554016 0.91290283 C5.46508947 1.54997748 7.70312538 2.19239383 9.93969727 2.83984375 C13.35825462 3.82667397 16.78299881 4.78931937 20.20898438 5.75 C22.3897365 6.37355539 24.57008968 6.99850805 26.75 7.625 C27.77091232 7.91058777 28.79182465 8.19617554 29.84367371 8.49041748 C34.88197059 9.96783538 38.89378882 11.23669354 42.67578125 15.078125 C44.29679914 18.32016079 44.23485232 21.57417955 43.67578125 25.078125 C41.67578125 28.515625 41.67578125 28.515625 38.67578125 31.078125 C31.58575641 32.79407382 26.02638471 31.22677056 19.1328125 29.21875 C18.0461882 28.91370544 16.9595639 28.60866089 15.8400116 28.29437256 C13.55285991 27.64900582 11.26774735 26.99637341 8.98461914 26.33691406 C5.49376126 25.32970613 1.99676994 24.34668259 -1.50195312 23.3671875 C-3.72826522 22.73578595 -5.95419083 22.1030197 -8.1796875 21.46875 C-9.2224736 21.17486389 -10.2652597 20.88097778 -11.33964539 20.57818604 C-22.66828016 17.28604312 -22.66828016 17.28604312 -25.63671875 13.328125 C-26.95611142 9.01011263 -26.90942178 5.39483182 -25.07421875 1.265625 C-18.84916251 -6.51569529 -8.13309383 -2.35363804 0 0 Z " fill="#000000" transform="translate(37.32421875,163.921875)"/>
<path d="M0 0 C1.9753418 0.18701172 1.9753418 0.18701172 4 1 C4.85864258 2.74658203 4.85864258 2.74658203 5.39453125 5.0078125 C7.83648737 15.28535205 7.83648737 15.28535205 14.68359375 22.74609375 C18.33394911 24.54323253 22.12860728 25.76860631 26 27 C26.99 27.66 27.98 28.32 29 29 C29.1875 31.625 29.1875 31.625 29 34 C27.95199219 34.48210938 26.90398437 34.96421875 25.82421875 35.4609375 C24.44525174 36.098827 23.06634883 36.73685509 21.6875 37.375 C20.99720703 37.69210938 20.30691406 38.00921875 19.59570312 38.3359375 C13.91736558 40.60025512 13.91736558 40.60025512 10.06445312 44.95532227 C9.80599609 45.73447998 9.54753906 46.5136377 9.28125 47.31640625 C8.98863281 48.16267578 8.69601563 49.00894531 8.39453125 49.88085938 C7.7970044 51.67213529 7.20065457 53.46380425 6.60546875 55.25585938 C6.31285156 56.10083984 6.02023438 56.94582031 5.71875 57.81640625 C5.46029297 58.59443604 5.20183594 59.37246582 4.93554688 60.17407227 C4 62 4 62 1 63 C-2.31753463 60.78831025 -2.40378505 60.51232868 -3.26171875 56.89453125 C-5.79595319 46.51764963 -5.79595319 46.51764963 -12.98046875 39.22265625 C-16.87199326 37.42056428 -20.88328261 36.18031757 -25 35 C-26 34 -26 34 -26.0625 31.4375 C-26.041875 30.633125 -26.02125 29.82875 -26 29 C-23.3773768 27.66180502 -20.75213401 26.3292849 -18.125 25 C-17.37863281 24.6184375 -16.63226563 24.236875 -15.86328125 23.84375 C-15.14785156 23.4828125 -14.43242188 23.121875 -13.6953125 22.75 C-13.03547363 22.41484375 -12.37563477 22.0796875 -11.69580078 21.734375 C-10 21 -10 21 -8 21 C-7.82984375 20.31035156 -7.6596875 19.62070312 -7.484375 18.91015625 C-3.51386322 3.51386322 -3.51386322 3.51386322 0 0 Z " fill="#000000" transform="translate(77,23)"/>
<path d="M0 0 C3.51569566 1.51160033 6.66122742 3.49560792 9.875 5.5625 C10.75470459 6.11099609 11.63440918 6.65949219 12.54077148 7.22460938 C15.04185444 8.79482508 17.52415536 10.39035851 20 12 C20.6089209 12.39300293 21.2178418 12.78600586 21.84521484 13.19091797 C30.31270284 18.70359177 30.31270284 18.70359177 33 23 C33.59612311 27.61995409 33.73012864 30.61261258 30.9375 34.4375 C27.39316552 37.52936625 25.6791739 38.08067541 21 38 C14.05172625 35.56490011 8.01470389 31.46648229 1.8125 27.5625 C0.73291016 26.89412109 -0.34667969 26.22574219 -1.45898438 25.53710938 C-2.49732422 24.88677734 -3.53566406 24.23644531 -4.60546875 23.56640625 C-5.54543701 22.97802979 -6.48540527 22.38965332 -7.45385742 21.78344727 C-13.41499504 17.60796445 -13.41499504 17.60796445 -14.71484375 14.03515625 C-15.10913584 10.54186666 -15.20703891 8.49035531 -13.8125 5.1875 C-9.76784028 0.30601413 -6.38258991 -1.06365286 0 0 Z " fill="#000000" transform="translate(58,118)"/>
<path d="M0 0 C2.46810594 2.1516821 3.74159986 3.68402403 4.37890625 6.9296875 C4.584045 10.4368984 4.23446936 12.56164424 2.5625 15.6875 C0.2512605 17.77325272 -1.58409926 18.90639586 -4.3125 20.3125 C-11.17528906 23.89652658 -15.14134996 29.44029493 -19 36 C-23.01858595 38.6790573 -26.27641721 38.69610694 -31 38 C-33.87029869 36.20606332 -35.49131638 35.01736724 -37 32 C-38.08614123 23.44663781 -35.15410733 18.69932294 -30 12 C-22.82873487 3.04875499 -11.45664544 -4.58265818 0 0 Z " fill="#000000" transform="translate(204,140)"/>
<path d="M0 0 C3.51256394 2.23526796 5.24069824 3.68120837 6.25390625 7.796875 C7.07730808 12.96263805 6.91675499 16.35740436 3.75 20.75 C-0.16435512 24.20919755 -3.19134784 25.3629485 -8.29296875 25.0703125 C-12.49011287 24.38335478 -15.28649174 22.80985909 -18.125 19.6875 C-19.79369335 15.33035626 -20.04477062 11.34936699 -19.25 6.75 C-17.60116481 3.55047457 -15.27563708 1.50213386 -12.375 -0.625 C-7.92146964 -1.93486187 -4.30505222 -1.65578932 0 0 Z " fill="#000000" transform="translate(302.25,279.25)"/>
<path d="M0 0 C3.2186267 2.1213676 4.36898801 3.20652425 5.75 6.8125 C6.29445333 11.40254401 6.28741877 15.40923989 4.625 19.75 C1.26138344 23.44997822 -2.31324311 24.96682083 -7.25 25.25 C-11.52747698 25.05371043 -14.0443654 23.71993603 -17.25 20.8125 C-19.80327716 16.74321453 -20.55718996 13.85212657 -19.75 9.1875 C-18.58545191 4.94883427 -16.75546894 2.54847576 -13.25 -0.1875 C-8.51800479 -1.76483174 -4.69388532 -1.71507348 0 0 Z " fill="#000000" transform="translate(175.25,279.1875)"/>
<path d="M0 0 C4.13744473 2.90501438 5.9386282 6.01623292 6.9140625 10.875 C7.06730135 14.66417872 5.89731975 17.75812295 4 21 C0.86699475 24.03509883 -1.9682574 24.90266579 -6.3125 25.3125 C-10.73267921 24.93790854 -12.62729281 23.83614013 -16 21 C-18.96716779 17.43939865 -19.47550585 14.4258457 -19.2890625 9.92578125 C-18.70812605 6.05548845 -16.87659513 3.76702074 -14 1.25 C-9.38035281 -1.6372795 -5.11647651 -1.28586316 0 0 Z " fill="#000000" transform="translate(368,29)"/>
<path d="M0 0 C3.41944127 1.94438817 5.23645591 3.39817285 7.1875 6.8125 C7.11857581 9.70731608 6.57611317 11.21935358 5 13.625 C2.32532006 15.37737651 0.31320522 15.13809429 -2.8125 14.8125 C-3.8025 14.1525 -4.7925 13.4925 -5.8125 12.8125 C-9.63998905 12.99482592 -9.63998905 12.99482592 -12.8125 14.8125 C-19.07077815 15.3919702 -19.07077815 15.3919702 -21.8125 13.25 C-23.2926249 9.64219557 -22.93801241 7.52007029 -21.8125 3.8125 C-15.07421411 -1.75391008 -8.18812066 -2.55039824 0 0 Z " fill="#000000" transform="translate(303.8125,240.1875)"/>
<path d="M0 0 C1.62890625 1.0703125 1.62890625 1.0703125 3.62890625 3.0703125 C4.17912459 9.12271425 4.17912459 9.12271425 2.50390625 12.0078125 C-0.24160469 13.56360203 -2.26598429 13.3871604 -5.37109375 13.0703125 C-6.05171875 12.7196875 -6.73234375 12.3690625 -7.43359375 12.0078125 C-10.07660404 10.72893655 -11.60702007 11.27018591 -14.37109375 12.0703125 C-15.36109375 12.5653125 -15.36109375 12.5653125 -16.37109375 13.0703125 C-21.58763347 13.51427333 -21.58763347 13.51427333 -24.24609375 12.0078125 C-26.0606265 8.88278387 -25.86603337 6.59675732 -25.37109375 3.0703125 C-18.21126297 -4.49865146 -8.75403265 -4.7749269 0 0 Z " fill="#000000" transform="translate(179.37109375,241.9296875)"/>
<path d="M0 0 C2.41632645 1.87936502 3.14474923 2.94397521 4.25 5.75 C4.56096221 10.27888552 4.05424554 13.75078585 1.1875 17.3125 C-2.60610326 19.16894415 -5.60279314 19.60457596 -9.75 18.75 C-12.5600346 16.95636089 -14.25940468 15.73119065 -15.75 12.75 C-16.32884232 5.68812375 -16.32884232 5.68812375 -13.9375 1.8125 C-9.83745055 -2.05326091 -5.03426638 -2.2883029 0 0 Z " fill="#000000" transform="translate(46.75,246.25)"/>
</svg>
