<?xml version="1.0" encoding="UTF-8"?>
<svg version="1.1" xmlns="http://www.w3.org/2000/svg" width="512" height="512">
<path d="M0 0 C0.93328125 -0.03738281 1.8665625 -0.07476563 2.828125 -0.11328125 C6.79181604 0.46431544 8.69384848 1.71619551 11.75 4.3125 C13.61733187 6.89829243 15.02542594 9.64503869 16.4375 12.5 C16.85757324 13.32661133 17.27764648 14.15322266 17.71044922 15.00488281 C25.64114168 30.85457487 32.63606669 47.04693537 38.20166016 63.87792969 C40.44058303 70.64494234 42.84298205 76.469797 47.375 82.0625 C50.66666667 86.14583333 50.66666667 86.14583333 51.75 88.3125 C52.75417969 88.03535156 53.75835937 87.75820312 54.79296875 87.47265625 C71.13396339 83.08853596 85.44461266 81.26400615 100.89453125 89.55859375 C108.65678951 94.32638303 113.6231276 99.98687034 118.2421875 107.796875 C119.62056367 110.09654924 121.10209397 112.20081204 122.75 114.3125 C123.65621094 113.76980469 124.56242187 113.22710937 125.49609375 112.66796875 C136.08749861 106.40583343 145.01113299 101.72470425 157.75 103.3125 C167.40798076 107.68592525 172.85030913 117.94676042 176.75 127.3125 C179.24161579 134.05327359 181.52736188 140.73525512 182.33984375 147.90234375 C182.94619548 155.99159931 182.94619548 155.99159931 187.16796875 162.5390625 C189.97866859 164.01837821 192.78340006 165.18561887 195.75 166.3125 C209.23519074 175.64840128 214.33478177 191.96802396 217.390625 207.30029297 C218.16081154 211.61270971 218.56108203 215.93904895 218.75 220.3125 C219.75417969 220.71339844 220.75835937 221.11429688 221.79296875 221.52734375 C247.90803831 232.24830085 265.66795337 251.07140032 276.93359375 276.80078125 C288.31745406 304.24390819 292.73021375 336.52353143 282.5625 365 C277.71290545 376.58112132 271.64222341 386.38519878 262.75 395.3125 C262.16863281 395.89644531 261.58726562 396.48039062 260.98828125 397.08203125 C260.37533203 397.69111328 260.37533203 397.69111328 259.75 398.3125 C261.3535908 401.93987384 263.60677515 404.77542125 266.0625 407.875 C277.05371676 422.23917113 280.63179558 438.78368189 278.31640625 456.66015625 C274.00132561 478.71799084 257.57064748 498.32092598 239.35546875 510.9375 C236.05248039 512.6806063 233.51944307 513.12502635 229.8203125 512.984375 C226.77640527 511.99654095 225.07498391 510.52018662 222.75 508.3125 C221.61250202 505.81626324 220.74645307 503.56674731 219.953125 500.96875 C219.71831924 500.25141693 219.48351349 499.53408386 219.24159241 498.79501343 C218.74088846 497.26372886 218.24692859 495.73022527 217.75918579 494.19476318 C216.48346125 490.19164347 215.14743063 486.20894167 213.80859375 482.2265625 C213.54632492 481.44483673 213.28405609 480.66311096 213.01383972 479.85769653 C209.90947922 470.69517182 206.09151875 461.95239685 201.75 453.3125 C201.3777832 452.56387695 201.00556641 451.81525391 200.62207031 451.04394531 C190.33719017 430.5180251 176.99828138 410.85556086 159.48046875 395.8203125 C157.13812159 393.77935087 155.32810081 392.00842222 153.75 389.3125 C153.37593296 383.54818822 154.21286195 378.97129776 156.0625 373.5 C158.01909358 367.28013568 159.48859177 361.13003188 160.5 354.6875 C160.61512939 353.97360107 160.73025879 353.25970215 160.84887695 352.52416992 C163.13609725 337.02881428 163.03915445 321.25144361 163.3125 305.625 C163.34277283 303.92914764 163.34277283 303.92914764 163.37365723 302.19903564 C163.49142116 295.53569767 163.59977877 288.87225383 163.70318604 282.2086792 C163.74478281 279.63526534 163.79141341 277.06203342 163.84130859 274.48876953 C164.29517265 250.6247169 162.46492178 229.44939934 149.16796875 208.9609375 C147.21408276 205.3115306 146.34858403 202.00736742 147.3125 197.9375 C148.58826668 195.60783911 149.92572964 193.76299232 151.5625 191.6875 C160.67682533 179.93716882 161.79583544 167.63218147 160.75 153.3125 C159.35233715 143.32886929 155.26164112 134.23051062 150.75 125.3125 C136.45604494 129.92657579 121.69170856 140.20543204 114.71826172 153.7590332 C113.8583903 155.53046104 113.03928724 157.32150859 112.22265625 159.11328125 C108.05927835 168.15786082 108.05927835 168.15786082 103.75 170.3125 C97.31560505 170.90022861 91.01256732 169.90184441 84.6875 168.8125 C83.82189453 168.66941406 82.95628906 168.52632812 82.06445312 168.37890625 C79.9585603 168.02986324 77.85411505 167.67210461 75.75 167.3125 C75.83701172 168.47265625 75.83701172 168.47265625 75.92578125 169.65625 C76.24481179 177.02129788 75.70054891 181.72114399 70.75 187.3125 C62.22316998 196.42365594 50.58619557 199.74440423 38.75 202.3125 C37.76 202.3125 36.77 202.3125 35.75 202.3125 C35.52957031 203.01761719 35.30914062 203.72273437 35.08203125 204.44921875 C29.82398887 215.75169694 15.97104074 224.63667614 4.8046875 228.875 C-18.08438388 236.97813629 -40.53960264 232.98280502 -63.328125 226.1171875 C-66.38762832 225.13548937 -66.38762832 225.13548937 -70.25 225.3125 C-76.75026399 244.74377044 -81.37273313 264.08709261 -84.74658203 284.28540039 C-84.90239746 285.17219482 -85.05821289 286.05898926 -85.21875 286.97265625 C-85.34443359 287.73457275 -85.47011719 288.49648926 -85.59960938 289.28149414 C-86.62856066 292.49464945 -88.7860117 294.22591061 -91.25390625 296.421875 C-103.87588674 308.37694067 -111.20764829 326.57552925 -111.75 343.75 C-111.09859546 363.2717798 -102.96002302 380.46634909 -89.25 394.3125 C-67.97724984 413.90380287 -38.51047742 420.19071618 -10.25 419.41796875 C-9.59 419.38316406 -8.93 419.34835937 -8.25 419.3125 C-8.12753906 418.41273438 -8.00507813 417.51296875 -7.87890625 416.5859375 C-6.27096472 408.21665177 -0.80157182 401.53956632 5.75 396.3125 C11.75452271 392.56238293 17.76039826 391.60434141 24.75 391.3125 C24.77578125 390.755625 24.8015625 390.19875 24.828125 389.625 C25.35371767 382.55338953 27.03362654 377.02887346 32.125 371.9375 C37.92688921 368.3458543 43.22856123 367.50137155 49.94921875 368.70703125 C56.37632678 370.39837547 60.35517389 373.60218107 63.75 379.3125 C67.01418915 387.60498052 67.37179985 396.49652418 67.75 405.3125 C68.28737793 405.43141602 68.82475586 405.55033203 69.37841797 405.67285156 C84.67331852 409.10401496 99.74425667 413.19385935 114.8125 417.5 C116.20163605 417.8953595 116.20163605 417.8953595 117.61883545 418.29870605 C120.30053621 419.06331218 122.98063538 419.83326157 125.66015625 420.60546875 C126.85743599 420.94746559 126.85743599 420.94746559 128.0789032 421.29637146 C141.46651737 425.18459102 141.46651737 425.18459102 144.8125 428.125 C146.13988527 431.2222323 145.71847381 433.13037178 144.75 436.3125 C140.97180343 438.83129771 139.24983831 438.63184153 134.75 438.3125 C131.79323597 437.68962136 128.9316952 436.82795866 126.046875 435.93359375 C125.21870773 435.68583694 124.39054047 435.43808014 123.53727722 435.18281555 C121.76901504 434.65321061 120.00196445 434.11954603 118.23605347 433.58215332 C113.63876481 432.18391711 109.0323627 430.81647208 104.42578125 429.44921875 C103.05704613 429.04215195 103.05704613 429.04215195 101.66065979 428.62686157 C90.10549182 425.20758689 78.4473112 422.2059714 66.75 419.3125 C66.65275635 419.88500488 66.5555127 420.45750977 66.45532227 421.04736328 C65.12354538 428.30623157 63.00013408 435.18754138 60.6875 442.1875 C59.96640902 444.39288975 59.24631387 446.59860542 58.52734375 448.8046875 C58.21015381 449.76745605 57.89296387 450.73022461 57.56616211 451.72216797 C56.87680769 453.91003826 56.2939171 456.08577642 55.75 458.3125 C56.97452881 458.56394775 58.19905762 458.81539551 59.46069336 459.07446289 C65.53500972 460.4272298 71.44007636 462.27295799 77.37890625 464.12109375 C78.5679808 464.4884816 79.75705536 464.85586945 80.98216248 465.23439026 C84.12146654 466.2054494 87.2597136 467.17983537 90.39758301 468.15551758 C92.31193088 468.74982332 94.22698423 469.34179302 96.14233398 469.93286133 C99.84704471 471.07620225 103.55066545 472.22300168 107.25390625 473.37109375 C108.38744034 473.72119003 109.52097443 474.07128632 110.68885803 474.43199158 C127.11132847 479.54609416 127.11132847 479.54609416 129.3125 482.1875 C129.88483504 484.96741305 129.71106592 486.63524493 128.75 489.3125 C127.1875 491.1875 127.1875 491.1875 124.75 492.3125 C118.06423209 491.87377157 111.98640009 490.05351808 105.61328125 488.06640625 C104.54761429 487.73939224 103.48194733 487.41237823 102.38398743 487.07545471 C98.94115695 486.01603446 95.50170777 484.94611693 92.0625 483.875 C89.70296458 483.14501198 87.34342681 482.41503153 84.98388672 481.68505859 C70.18061636 477.08850416 55.4596399 472.31751184 40.8515625 467.1328125 C39.48547852 466.64832642 39.48547852 466.64832642 38.09179688 466.15405273 C36.24437525 465.49015966 34.40561587 464.80216253 32.5703125 464.10546875 C28.73797267 463.02795492 24.95726462 462.80616011 21 462.5 C11.07166854 461.56573426 4.47814155 458.65146427 -3.25 452.3125 C-6.86537862 467.20838417 -10.11549757 482.07215866 -12.42456055 497.23339844 C-12.69780151 498.90644043 -12.69780151 498.90644043 -12.9765625 500.61328125 C-13.12689941 501.59466064 -13.27723633 502.57604004 -13.43212891 503.5871582 C-14.42085387 506.88182589 -15.92461649 508.80420556 -18.25 511.3125 C-21.70739557 513.04119779 -25.46975568 512.80216895 -29.25 512.3125 C-32.12029869 510.51856332 -33.74131638 509.32986724 -35.25 506.3125 C-35.78685587 497.75057445 -34.13955307 489.51186346 -32.625 481.125 C-32.49260925 480.37792786 -32.36021851 479.63085571 -32.22381592 478.86114502 C-29.95701346 466.12635717 -27.02043498 453.69343188 -23.25 441.3125 C-25.10238281 441.16554688 -25.10238281 441.16554688 -26.9921875 441.015625 C-55.14817583 438.60673623 -80.86060994 431.65128482 -102.25 412.3125 C-103.16523437 411.49136719 -104.08046875 410.67023438 -105.0234375 409.82421875 C-117.13289219 398.37620486 -124.84426401 384.98834407 -130.25 369.3125 C-130.6109375 368.28253906 -130.971875 367.25257813 -131.34375 366.19140625 C-137.49456822 344.7489705 -133.05832814 321.07592791 -122.87890625 301.703125 C-119.13140559 295.16277154 -114.59905638 287.88017221 -108.72265625 283.05957031 C-106.64626326 280.59626324 -106.4218865 278.38886589 -105.85546875 275.23046875 C-105.62520996 273.99868896 -105.39495117 272.76690918 -105.15771484 271.49780273 C-105.04047058 270.84544647 -104.92322632 270.19309021 -104.8024292 269.52096558 C-104.18599143 266.10715402 -103.52713839 262.70174075 -102.86328125 259.296875 C-102.73042725 258.61491562 -102.59757324 257.93295624 -102.46069336 257.23033142 C-101.25913574 251.16552748 -99.78195626 245.20467003 -98.125 239.25 C-97.87983643 238.3640918 -97.63467285 237.47818359 -97.38208008 236.56542969 C-96.30363761 232.75369964 -95.16344194 228.98539923 -93.84375 225.25 C-93.4415625 224.095 -93.039375 222.94 -92.625 221.75 C-92.26148438 220.79996094 -91.89796875 219.84992188 -91.5234375 218.87109375 C-90.95080797 216.12649047 -90.95080797 216.12649047 -93.0859375 213.6171875 C-93.80007812 212.85664063 -94.51421875 212.09609375 -95.25 211.3125 C-97.85556024 206.49221356 -98.17642276 201.43771097 -96.6328125 196.23046875 C-94.18507004 190.56600278 -90.34307233 187.59632898 -85.25 184.3125 C-84.26 183.6525 -83.27 182.9925 -82.25 182.3125 C-82.52714844 181.631875 -82.80429688 180.95125 -83.08984375 180.25 C-84.39030774 176.95724269 -85.61041843 173.64244538 -86.8125 170.3125 C-87.46412109 168.518125 -87.46412109 168.518125 -88.12890625 166.6875 C-94.49054575 147.53608351 -90.84935647 123.04718103 -82.671875 104.875 C-79.77707277 99.65799378 -76.03535188 94.39803413 -70.25 92.3125 C-52.04182848 90.549096 -35.83003934 97.31775921 -21.625 108.5 C-19.05322659 110.66233685 -16.63205815 112.88346418 -14.3125 115.3125 C-12.36987668 117.66057292 -12.36987668 117.66057292 -9.25 117.3125 C-9.59933594 116.44367188 -9.94867188 115.57484375 -10.30859375 114.6796875 C-10.76363281 113.52726562 -11.21867187 112.37484375 -11.6875 111.1875 C-12.13996094 110.05054687 -12.59242188 108.91359375 -13.05859375 107.7421875 C-16.41997979 98.06580409 -16.27136566 87.24140042 -13.69921875 77.390625 C-12.64647099 72.52052232 -13.06032206 67.65876883 -13.75 62.76367188 C-14.34354123 58.05630464 -14.41175727 53.40001938 -14.41796875 48.66015625 C-14.42296135 47.31080238 -14.42296135 47.31080238 -14.42805481 45.93418884 C-14.43308948 44.04247545 -14.43546421 42.15075329 -14.43530273 40.2590332 C-14.43749106 37.38673114 -14.45568885 34.51481255 -14.47460938 31.64257812 C-14.47754378 29.79427213 -14.47952826 27.94596433 -14.48046875 26.09765625 C-14.48765427 25.25050552 -14.49483978 24.4033548 -14.50224304 23.53053284 C-14.4689044 14.70594211 -13.65238074 7.71488074 -7.25 1.3125 C-4.72101435 0.04800718 -2.82519546 0.07333158 0 0 Z M6.75 44.3125 C7.20484308 57.95134735 7.20484308 57.95134735 9.75 71.3125 C12.39 71.9725 15.03 72.6325 17.75 73.3125 C16.41634251 66.41257732 14.31639723 60.2312269 11.625 53.75 C11.25246094 52.83669922 10.87992188 51.92339844 10.49609375 50.98242188 C9.58704966 48.75642928 8.6716263 46.53330556 7.75 44.3125 C7.42 44.3125 7.09 44.3125 6.75 44.3125 Z M6.75 84.3125 C5.30488718 92.19493358 5.71068698 100.30253758 9.9831543 107.34521484 C12.16209934 109.77134986 13.93034744 110.43463341 17.00390625 111.48828125 C18.02291016 111.84083984 19.04191406 112.19339844 20.09179688 112.55664062 C21.68604492 113.08547852 21.68604492 113.08547852 23.3125 113.625 C24.37919922 113.99689453 25.44589844 114.36878906 26.54492188 114.75195312 C30.61142708 116.15551169 30.61142708 116.15551169 34.75 117.3125 C35.74 116.8175 35.74 116.8175 36.75 116.3125 C35.6269848 106.61910567 34.3404722 97.70682605 26.9296875 90.69921875 C21.45633253 87.2170664 13.26107931 84.3125 6.75 84.3125 Z M57.75 110.3125 C56.61533805 120.81545369 56.61533805 120.81545369 60.875 130 C61.82439453 131.00933594 61.82439453 131.00933594 62.79296875 132.0390625 C66.38850481 136.21591277 68.45292081 141.33970219 70.75 146.3125 C81.73476087 147.98668377 81.73476087 147.98668377 92.75 147.3125 C97.0638024 143.98207069 98.67056888 140.24966361 100.75 135.3125 C102.00789701 133.24859998 103.36177985 131.29354377 104.75 129.3125 C100.43482607 119.85584224 96.73555424 111.95077807 87.5625 106.375 C77.15446605 103.47440038 67.30349384 105.53575308 57.75 110.3125 Z M-62.25 113.3125 C-69.5365671 127.2938318 -71.88424986 144.55858861 -67.75 159.875 C-67.27284439 161.36169316 -66.78257543 162.84474749 -66.25 164.3125 C-63.25786241 160.71822946 -61.43663123 156.74922298 -59.4375 152.5625 C-54.94952086 143.43301905 -50.20685243 136.80217821 -42.3984375 130.171875 C-40.244761 128.30796588 -38.24071415 126.34825294 -36.25 124.3125 C-48.45853751 116.43683889 -48.45853751 116.43683889 -62.25 113.3125 Z M19.75 126.3125 C21.60106552 128.24069325 23.46036258 130.08129269 25.55078125 131.75 C33.01045868 137.77568119 38.06356377 144.73463368 40 154.1875 C40.69769519 157.0326916 40.69769519 157.0326916 42.75 159.3125 C48.6693596 162.13076653 55.32610597 163.22536512 61.75 164.3125 C60.55291399 154.04046317 56.82943452 143.12963989 49.75 135.3125 C46.93392496 133.94526387 46.93392496 133.94526387 43.65625 132.953125 C42.46128906 132.55996094 41.26632812 132.16679687 40.03515625 131.76171875 C38.78605469 131.36597656 37.53695312 130.97023437 36.25 130.5625 C35.00089844 130.15128906 33.75179687 129.74007812 32.46484375 129.31640625 C26.22936879 127.12041067 26.22936879 127.12041067 19.75 126.3125 Z M-41.37890625 145.85546875 C-45.18404199 150.85219188 -47.60657144 156.64890721 -50.25 162.3125 C-57.74189206 177.21762908 -66.95509981 189.39298899 -81.53515625 197.92578125 C-83.36557386 199.20555834 -83.36557386 199.20555834 -84.18359375 201.23046875 C-84.42637169 203.3833054 -84.42637169 203.3833054 -83.1796875 205.30395508 C-80.5249357 208.06719434 -78.13136198 208.54694202 -74.44140625 209.53125 C-73.76695969 209.71482559 -73.09251312 209.89840118 -72.39762878 210.08753967 C-70.20650118 210.67856473 -68.01025491 211.24666012 -65.8125 211.8125 C-64.30295799 212.21046979 -62.79351814 212.60882728 -61.28417969 213.00756836 C-26.92660522 222.17853785 -26.92660522 222.17853785 6.765625 213.23046875 C18.53983279 205.66353678 28.15800374 194.97390226 31.3125 181.0546875 C33.20824124 169.17245224 30.86803025 158.33905177 24 148.375 C16.56482234 138.9020329 6.68445576 133.02345737 -5.25 131.3125 C-19.11938651 130.17566504 -31.88223795 135.86199285 -41.37890625 145.85546875 Z M44.75 173.3125 C44.09 177.9325 43.43 182.5525 42.75 187.3125 C49.00538049 185.45543392 54.5449533 183.33578865 59.75 179.3125 C60.08 178.6525 60.41 177.9925 60.75 177.3125 C55.47 175.9925 50.19 174.6725 44.75 173.3125 Z M180.75 183.3125 C179.42997444 185.87136504 178.11886218 188.43417068 176.8125 191 C176.43931641 191.72123047 176.06613281 192.44246094 175.68164062 193.18554688 C172.8427439 198.50107078 172.8427439 198.50107078 171.75 204.3125 C172.71197316 206.91360568 173.72512017 209.27316578 174.9375 211.75 C178.3314059 219.08899492 180.97381075 226.39961898 182.75 234.3125 C182.92877686 235.05145508 183.10755371 235.79041016 183.29174805 236.55175781 C185.60402312 247.72349284 185.00769698 259.21470103 184.9375 270.5625 C184.92927539 272.88468338 184.9213029 275.20686766 184.91357422 277.52905273 C184.85189382 291.81270882 184.68883661 306.09464491 184.375 320.375 C184.35980316 321.15951538 184.34460632 321.94403076 184.32894897 322.75231934 C184.02297592 337.77064565 183.37946394 352.65514216 179.03100586 367.10961914 C176.33475782 375.88971178 176.33475782 375.88971178 177.80078125 384.62744141 C181.0997396 389.00691301 185.3730063 392.22362064 189.67724609 395.56445312 C192.98758565 398.35621181 195.47178656 401.63045477 198 405.125 C198.48170654 405.78443604 198.96341309 406.44387207 199.4597168 407.12329102 C208.51696196 419.77897586 216.17442452 433.22198111 222.75 447.3125 C223.08628418 448.02905762 223.42256836 448.74561523 223.76904297 449.48388672 C228.76868462 460.21350753 232.99900427 471.08792945 236.75 482.3125 C240.75181944 481.79670994 242.1849721 480.0438809 244.625 476.9375 C252.32741162 466.83973877 258.43125778 455.82154294 257.6875 442.75 C255.76903159 428.71488899 248.77505906 418.87760673 237.75 410.3125 C236.63532564 409.54723791 235.51135285 408.79518493 234.375 408.0625 C231.75 406.3125 231.75 406.3125 229.75 403.3125 C228.96847931 396.39045958 228.96847931 396.39045958 231.5625 392.8125 C233.36670723 391.27406834 235.2732365 389.94515647 237.21484375 388.58203125 C252.36570954 377.93605122 262.33441007 363.71546298 265.75 345.3125 C266.2634413 342.30886842 266.57752973 339.35424848 266.75 336.3125 C266.80285156 335.54164063 266.85570312 334.77078125 266.91015625 333.9765625 C267.89408762 306.16980645 256.98297208 276.99573617 238.16796875 256.66796875 C228.69148379 247.43643332 217.43580235 242.45080003 204.75390625 239.3046875 C201.81893415 238.33526889 200.55007126 237.76547846 198.75 235.3125 C197.73811958 232.27685875 197.60360616 229.68725585 197.51098633 226.51171875 C197.08028015 212.88938386 195.58534472 198.30004408 186.75 187.3125 C184.16998374 184.54416183 184.16998374 184.54416183 180.75 183.3125 Z M40.75 382.3125 C37.88737937 386.60643095 38.00865518 390.89780772 37.5078125 395.96484375 C36.63700271 399.81166845 36.00131478 401.10776857 32.75 403.3125 C29.2890625 404 29.2890625 404 25.375 404.3125 C18.11457088 404.89449833 14.19939898 406.86310102 9.0625 412 C4.82108691 417.44542713 3.13454172 424.13926272 3.3984375 430.9765625 C4.24445599 436.59788533 6.19014286 441.5793254 10 445.8125 C16.48888104 449.35188966 23.70105724 449.77264226 30.9387207 450.52783203 C35.12359613 450.99117753 38.78612532 451.92791164 42.75 453.3125 C53.896097 424.58624775 53.896097 424.58624775 53.75 394.3125 C53.60723633 393.49974609 53.46447266 392.68699219 53.31738281 391.84960938 C52.32902311 386.3935593 52.32902311 386.3935593 48.75 382.3125 C45.90332193 381.7375274 43.70161603 382.03139371 40.75 382.3125 Z " fill="#000000" transform="translate(220.25,-0.3125)"/>
<path d="M0 0 C3.63164511 1.64288708 4.0803829 3.55043138 5.59765625 7.12890625 C6.40908072 9.54466808 6.95215477 11.73135842 7.43359375 14.21484375 C8.75336791 20.06761273 9.92962932 25.25642251 15.01855469 28.90234375 C20.60581041 31.9467687 26.46334062 34.24503927 32.47363281 36.31225586 C34.625 37.1875 34.625 37.1875 36.625 39.1875 C36.75 42.3125 36.75 42.3125 36.625 45.1875 C34.875 46.0625 33.125 46.9375 31.375 47.8125 C30.28058594 48.38613281 29.18617188 48.95976563 28.05859375 49.55078125 C24.625 51.1875 24.625 51.1875 21.47265625 52.04296875 C17.55868404 53.27710413 15.59691325 54.28090353 12.625 57.1875 C8.9433733 64.36355204 6.64477966 72.15873687 4.37426758 79.87426758 C3.625 82.1875 3.625 82.1875 2.625 83.1875 C0.62541636 83.22830783 -1.37545254 83.23004356 -3.375 83.1875 C-3.57134033 82.65382813 -3.76768066 82.12015625 -3.9699707 81.5703125 C-4.87555987 79.10928147 -5.78152788 76.64839007 -6.6875 74.1875 C-6.99623047 73.34832031 -7.30496094 72.50914063 -7.62304688 71.64453125 C-8.24271365 69.96164673 -8.87323328 68.28271968 -9.5144043 66.60791016 C-10.375 64.1875 -10.375 64.1875 -10.88598633 61.96630859 C-11.77933545 58.46808065 -12.58555711 56.71986942 -15.63842773 54.66113281 C-18.52835252 53.23055259 -21.43848566 51.99687265 -24.4375 50.8125 C-26.45059931 49.9746636 -28.46238772 49.13366836 -30.47265625 48.2890625 C-31.36476807 47.93150879 -32.25687988 47.57395508 -33.17602539 47.20556641 C-35.375 46.1875 -35.375 46.1875 -37.375 44.1875 C-37.8125 41.75 -37.8125 41.75 -37.375 39.1875 C-34.45147505 36.99046221 -31.49715226 35.87008939 -28.046875 34.8046875 C-21.48553267 32.59543885 -15.39507975 30.49915291 -11.64599609 24.35302734 C-8.80078133 17.96641804 -6.82536372 11.34065596 -5.12670898 4.56665039 C-4.12983969 1.41157039 -3.3784374 0.26671874 0 0 Z " fill="#000000" transform="translate(468.375,33.8125)"/>
<path d="M0 0 C1.01907944 -0.0038269 2.03815887 -0.00765381 3.08811951 -0.01159668 C5.23380527 -0.01430856 7.3795245 -0.00699831 9.52514648 0.00976562 C12.80202088 0.03120699 16.07670842 0.00992707 19.35351562 -0.015625 C21.44401523 -0.01298203 23.53451349 -0.00785769 25.625 0 C26.60014053 -0.00809692 27.57528107 -0.01619385 28.57997131 -0.02453613 C34.31602098 0.05425412 37.71588348 0.66237452 42.24609375 4.53125 C46.04669851 8.54299947 48.09382432 12.22643941 48.3515625 17.8203125 C47.96305613 27.11568702 42.78208238 33.6977865 36.2421875 39.9609375 C26.66450903 47.4956278 16.00910158 48.61538457 4.24609375 47.53125 C-7.0812243 44.94341624 -15.17464286 37.09486086 -21.62890625 27.84375 C-23.58664171 22.07930669 -23.98339497 15.90824568 -21.875 10.1171875 C-16.80747385 1.18629983 -9.5597866 -0.07954328 0 0 Z M-8.49305725 14.88264465 C-10.02455414 16.54958368 -10.02455414 16.54958368 -9.81640625 19.28125 C-7.75177847 25.59658204 -3.74249909 29.26959746 1.99609375 32.46875 C8.14319773 35.23862769 13.40714288 35.78595958 19.8515625 33.6796875 C25.92540241 30.97816113 30.75971634 27.25967076 34.24609375 21.53125 C35.00163695 18.2725065 35.00163695 18.2725065 34.24609375 15.53125 C31.62262483 12.90778108 29.72352635 13.27188498 26.15028381 13.22770691 C25.31694016 13.22861832 24.4835965 13.22952972 23.625 13.23046875 C22.76929916 13.22618362 21.91359833 13.2218985 21.03196716 13.21748352 C19.22045782 13.21173532 17.40892539 13.21124356 15.59741211 13.21557617 C12.8230047 13.2187336 10.04966589 13.19529259 7.27539062 13.16992188 C5.51692843 13.16764871 3.75846336 13.16694547 2 13.16796875 C0.75302086 13.15415413 0.75302086 13.15415413 -0.51914978 13.14006042 C-4.7912542 13.05359128 -4.7912542 13.05359128 -8.49305725 14.88264465 Z " fill="#000000" transform="translate(225.75390625,313.46875)"/>
<path d="M0 0 C1.97973633 0.18920898 1.97973633 0.18920898 4 1 C4.8269043 2.73071289 4.8269043 2.73071289 5.32421875 4.97265625 C7.86363833 15.54467215 7.86363833 15.54467215 15.19921875 23.00390625 C19.33921112 25.04618609 23.62162731 26.55331668 28 28 C29 29 29 29 29.0625 31.5625 C29.041875 32.366875 29.02125 33.17125 29 34 C27.95199219 34.48210937 26.90398437 34.96421875 25.82421875 35.4609375 C24.44525174 36.098827 23.06634883 36.73685509 21.6875 37.375 C20.99720703 37.69210938 20.30691406 38.00921875 19.59570312 38.3359375 C13.91509454 40.61959792 13.91509454 40.61959792 10.0168457 44.97119141 C9.6005188 46.1494751 9.6005188 46.1494751 9.17578125 47.3515625 C8.86962891 48.20234375 8.56347656 49.053125 8.24804688 49.9296875 C7.93931641 50.81914063 7.63058594 51.70859375 7.3125 52.625 C6.99216797 53.5221875 6.67183594 54.419375 6.34179688 55.34375 C5.55215157 57.55947116 4.77200076 59.77808235 4 62 C2.35 62 0.7 62 -1 62 C-1.58333333 60.54166667 -2.16666667 59.08333333 -2.75 57.625 C-3.1315625 56.71363281 -3.513125 55.80226562 -3.90625 54.86328125 C-5 52 -5 52 -5.59375 49.35546875 C-6.53977683 45.68961477 -7.40906335 43.01441901 -10.72607422 40.89941406 C-15.33486873 38.54510009 -20.15206528 36.7912708 -25 35 C-26 34 -26 34 -26.0625 31.4375 C-26.041875 30.633125 -26.02125 29.82875 -26 29 C-23.3773768 27.66180502 -20.75213401 26.3292849 -18.125 25 C-17.37863281 24.6184375 -16.63226563 24.236875 -15.86328125 23.84375 C-15.14785156 23.4828125 -14.43242188 23.121875 -13.6953125 22.75 C-13.03547363 22.41484375 -12.37563477 22.0796875 -11.69580078 21.734375 C-10 21 -10 21 -8 21 C-7.82984375 20.39414062 -7.6596875 19.78828125 -7.484375 19.1640625 C-2.73160173 2.73160173 -2.73160173 2.73160173 0 0 Z " fill="#000000" transform="translate(71,37)"/>
<path d="M0 0 C3.73325038 2.51422985 4.74796824 4.13364082 6 8.4375 C6 12.63900877 5.22418754 14.4569244 3 18 C0.109375 19.984375 0.109375 19.984375 -3.25 21.75 C-8.86069976 24.88431726 -12.25605189 28.26022561 -15.53515625 33.80078125 C-17.13694158 36.20559495 -18.5299724 37.51423387 -21 39 C-26.05803242 39.65264934 -27.99845071 39.58271959 -32.4375 37 C-34.92204067 34.09126947 -36.1622692 32.16673278 -36.3515625 28.30078125 C-34.94861726 19.11928406 -27.82914773 11.74478981 -21 6 C-14.28099818 1.12405771 -8.41516206 -1.16765407 0 0 Z " fill="#000000" transform="translate(213,139)"/>
<path d="M0 0 C3.17049713 2.59404311 5.46099158 4.50744924 6.1484375 8.65234375 C6.06569116 17.60273973 6.06569116 17.60273973 2.75 21.25 C-1.75267889 24.28669041 -5.94830352 25.19181834 -11.25 24.25 C-14.90804024 22.45548969 -16.81111892 20.85877052 -19.1875 17.5625 C-20.59731537 13.16719326 -20.45406057 9.68946143 -19.25 5.25 C-14.95964198 -1.9516724 -7.46508454 -4.0196609 0 0 Z " fill="#000000" transform="translate(186.25,279.75)"/>
<path d="M0 0 C3.41037542 2.17373028 4.73317038 4.58545443 5.87890625 8.4140625 C6.71138829 13.09348785 5.98689486 16.35654246 3.4375 20.3125 C0.19226501 23.55773499 -2.53686026 24.79450632 -7.125 24.875 C-11.67327424 24.77009746 -14.28120972 23.54576708 -17.75 20.5 C-20.46947305 16.06791763 -20.65621111 11.54999695 -19.75 6.5 C-15.41629545 -1.10107171 -8.24051789 -3.96313042 0 0 Z " fill="#000000" transform="translate(313.75,279.5)"/>
<path d="M0 0 C3.00685978 1.79132072 4.52657334 3.24682123 6.375 6.1875 C7.55883401 11.51475306 7.04957643 16.23821099 4.25 20.9375 C1.18508623 23.74700429 -0.92472349 24.96975918 -5.14453125 25.03125 C-10.2251881 24.69422467 -13.38849689 23.83038209 -17 20 C-19.28352953 16.95529396 -19.42464146 13.79109142 -19.3125 10.02734375 C-18.78010527 6.57343294 -17.28137423 4.58155505 -15 2 C-10.08086983 -1.54634966 -5.67852809 -1.5401174 0 0 Z " fill="#000000" transform="translate(23,136)"/>
<path d="M0 0 C5.70769231 3.12307692 5.70769231 3.12307692 7 7 C7.38887761 11.19987818 7.45908323 13.29607238 5.125 16.875 C2.19961143 19.80038857 1.42659437 19.96503325 -2.8125 20.3125 C-6.13227327 20.28232024 -6.99044521 20.0060988 -9.9375 18.125 C-13.07093316 14.89661432 -13.39218693 12.55070291 -13.359375 8.0390625 C-12.7567698 4.61993302 -10.63213933 3.06810948 -8 1 C-5.13391871 -0.43304064 -3.18699217 -0.30644155 0 0 Z " fill="#000000" transform="translate(397,1)"/>
</svg>
