<?xml version="1.0" encoding="UTF-8"?>
<svg version="1.1" xmlns="http://www.w3.org/2000/svg" width="512" height="512">
<path d="M0 0 C5.10583674 2.37056706 6.82709155 4.91967883 9 10 C12.08272035 27.79035561 10.79804835 47.98289791 8.53588867 65.79516602 C7.97232455 70.64050575 8.11934795 74.28847782 9.49755859 78.95849609 C10.45257301 82.83888022 10.38187316 86.77272868 10.375 90.75 C10.37483887 91.62527344 10.37467773 92.50054687 10.37451172 93.40234375 C10.2216497 102.11708782 7.96484978 109.28461664 4 117 C7.49359035 115.470548 10.01047665 113.37383952 12.875 110.875 C25.82638313 100.14828854 43.32520433 90.17554225 60.55078125 90.703125 C65.77447395 91.33629987 69.24367471 93.15951746 72.875 96.96484375 C85.07763383 112.77041041 87.62137488 136.61020233 85.25 155.875 C84.2730604 162.2978582 82.51464757 168.0265077 80 174 C79.69449219 174.73734375 79.38898438 175.4746875 79.07421875 176.234375 C78.40063125 177.83055391 77.70362915 179.41683442 77 181 C78.01320313 181.65355469 78.01320313 181.65355469 79.046875 182.3203125 C85.34236931 186.52337373 89.55360541 189.66081622 92 197 C92.79058093 203.57089392 91.63326621 208.4705401 88 214 C87.34 214.66 86.68 215.32 86 216 C87.65 220.29 89.3 224.58 91 229 C93.12179687 228.3503125 95.24359375 227.700625 97.4296875 227.03125 C99.51725753 226.4024554 101.60619304 225.77840994 103.6953125 225.15478516 C105.13202425 224.72319231 106.56729755 224.28677744 108.00097656 223.84521484 C127.0551879 217.98544692 127.0551879 217.98544692 135.375 221.375 C142.67778691 228.67778691 143.2168227 239.32696292 143.25 249.125 C143.2271492 266.20597644 137.69339589 280.37200184 126 293 C123.4214371 295.45095484 120.77333539 297.77248062 118 300 C118.70576172 301.61455078 118.70576172 301.61455078 119.42578125 303.26171875 C129.08765786 325.71555783 132.2761991 349.81994486 123.17041016 373.12304688 C119.07076134 383.15774283 113.96856835 391.6723137 107 400 C106.37609375 400.78632813 105.7521875 401.57265625 105.109375 402.3828125 C83.54336954 428.38887791 50.77389317 435.62196879 19 440 C19.15557373 440.58040039 19.31114746 441.16080078 19.47143555 441.75878906 C22.73914766 454.07176814 25.58937455 466.39063677 27.8125 478.9375 C28.0189917 480.10249023 28.2254834 481.26748047 28.43823242 482.46777344 C31.74268309 501.63664054 31.74268309 501.63664054 29 506 C26.04439777 509.21639067 24.42643241 509.93908108 20.0625 510.5625 C16.32504957 510.69296542 14.0288134 508.92643778 11.28686523 506.48364258 C9.16569874 504.03812393 8.92387863 501.73099277 8.5 498.5625 C8.2822821 497.14526995 8.06055689 495.72865262 7.8359375 494.3125 C7.6498291 493.08660156 7.6498291 493.08660156 7.45996094 491.8359375 C2.97118923 459.64183499 2.97118923 459.64183499 -11 431 C-11.47179687 430.34773438 -11.94359375 429.69546875 -12.4296875 429.0234375 C-18.94660296 420.66558548 -29.53987549 414.00939555 -40 412 C-49.1708519 411.32026493 -56.32781913 412.09187881 -65.0546875 415.09375 C-69.10409629 416.33972194 -72.82481366 416.8872271 -77 416 C-79.87029869 414.20606332 -81.49131638 413.01736724 -83 410 C-83.6970091 403.02990897 -83.6970091 403.02990897 -80.90625 398.90625 C-74.53194411 391.77261535 -60.94047075 390.14075205 -51.890625 389.15625 C-33.53959969 388.41926103 -17.28887177 394.08530838 -3.47607422 406.35351562 C4.30823864 413.61647727 4.30823864 413.61647727 6 417 C32.72502314 418.36146344 60.9848008 412.1828473 81.51171875 394.33203125 C94.7691238 381.90711631 105.03461058 365.90814486 106.23828125 347.3203125 C106.58537681 334.11648192 104.43260662 322.71653349 98 311 C98 310.34 98 309.68 98 309 C96.72962891 309.23783203 96.72962891 309.23783203 95.43359375 309.48046875 C79.89274261 311.83192859 64.00960976 309.11994414 51 300 C42.92692696 293.53543331 35.68340515 286.3668103 31 277 C28.69 277 26.38 277 24 277 C23.88398438 277.71027344 23.76796875 278.42054688 23.6484375 279.15234375 C20.57213131 292.66214624 10.02735493 304.11795659 -1.3515625 311.4765625 C-19.64287064 321.99811143 -39.39802904 325.02866197 -59.87060547 319.90698242 C-76.65826642 315.21798796 -91.8584762 304.68991178 -101.01171875 289.70703125 C-107.3112735 277.80787229 -111.37462643 264.29926408 -108.53125 250.76953125 C-106.88088775 246.16226997 -104.22174033 244.20754088 -100 242 C-96.6303902 241.4878525 -93.33666439 241.57275204 -89.93652344 241.68164062 C-88.96711697 241.69788734 -87.99771049 241.71413406 -86.99892807 241.73087311 C-77.90418698 241.91623526 -68.82030241 242.36702633 -59.74167633 242.92597961 C-56.91248549 243.10009755 -54.08289994 243.26592675 -51.25311279 243.43005371 C-45.25164397 243.77959882 -39.25081092 244.13936418 -33.25 244.5 C-26.26543657 244.91867827 -19.28064214 245.33288794 -12.29534149 245.73908997 C-9.5447726 245.90085991 -6.79464893 246.06902213 -4.04449463 246.2376709 C17.71290074 248.07282381 17.71290074 248.07282381 39 244.62890625 C39.8132373 244.38712143 40.62647461 244.14533661 41.46435547 243.89622498 C43.98387831 243.14116201 46.49131722 242.35273021 49 241.5625 C50.73109788 241.03878605 52.46286855 240.51729067 54.1953125 239.99804688 C61.75740544 237.90775176 61.75740544 237.90775176 69 235 C67.02 229.555 67.02 229.555 65 224 C57.50383493 225.31350896 50.09749833 226.83195985 42.6875 228.5625 C19.49241652 233.96366336 -1.21661978 233.62471836 -22 221 C-27.92205908 216.89952666 -32.52112707 212.86425029 -36.4375 206.8125 C-41.32521778 200.2379607 -48.65303156 199.33003838 -56.19140625 197.35546875 C-64.86659666 195.0448732 -72.51914176 190.20919705 -78 183 C-79.89803211 179.09433475 -80.21995478 176.00794263 -80.125 171.6875 C-80.10695312 170.61886719 -80.08890625 169.55023438 -80.0703125 168.44921875 C-80.04710937 167.64097656 -80.02390625 166.83273438 -80 166 C-81.04341553 166.19746826 -81.04341553 166.19746826 -82.10791016 166.39892578 C-85.27760988 166.98977935 -88.45102786 167.55756553 -91.625 168.125 C-92.71941406 168.33253906 -93.81382812 168.54007813 -94.94140625 168.75390625 C-105.32765791 170.57936866 -105.32765791 170.57936866 -110 168 C-113.51405914 165.21213872 -114.81212305 162.48627587 -116.3125 158.3125 C-122.42941734 143.03874275 -135.49052035 132.94470821 -150 126 C-152.76160723 125.26455299 -152.76160723 125.26455299 -155 125 C-163.16059773 140.88596359 -168.73337792 158.67380178 -163.375 176.4375 C-161.31081961 181.839504 -158.38371501 186.34400815 -155 191 C-152.36291099 194.68405271 -150.66135481 197.62197805 -151.125 202.25 C-152 206 -152 206 -154 209 C-155.54353768 220.90729069 -148.23539198 232.36348513 -142 242 C-141.46632812 242.83789062 -140.93265625 243.67578125 -140.3828125 244.5390625 C-136.52623952 250.05636068 -132.42740628 252.846658 -126.35546875 255.7109375 C-124 257 -124 257 -122 260 C-122.0515625 260.93714844 -122.103125 261.87429688 -122.15625 262.83984375 C-121.94556484 267.10095103 -120.36479047 268.46041513 -117.5 271.5625 C-108.71864843 281.47531599 -102.76696097 292.66448804 -97.83203125 304.89453125 C-95.08321925 311.68205085 -91.93943372 318.00962106 -88.35546875 324.3828125 C-87 327 -87 327 -87 329 C-86.18015625 329.23976563 -85.3603125 329.47953125 -84.515625 329.7265625 C-80.33869224 331.23954037 -76.61725017 333.20764002 -72.75 335.375 C-71.67105469 335.95507812 -71.67105469 335.95507812 -70.5703125 336.546875 C-69.88195312 336.93101562 -69.19359375 337.31515625 -68.484375 337.7109375 C-67.86272461 338.05431152 -67.24107422 338.39768555 -66.60058594 338.75146484 C-64.6239841 340.29331076 -63.89855773 341.67581335 -63 344 C-63.0625 346.5 -63.0625 346.5 -64 349 C-67.98657067 352.62138862 -72.50807271 355.14984764 -77.1875 357.75 C-77.91130859 358.16121094 -78.63511719 358.57242187 -79.38085938 358.99609375 C-84.74497768 362 -84.74497768 362 -87 362 C-87.35578125 363.22783203 -87.35578125 363.22783203 -87.71875 364.48046875 C-89.25337633 368.69601241 -91.28461636 372.42319229 -93.5 376.3125 C-93.90347656 377.04017578 -94.30695313 377.76785156 -94.72265625 378.51757812 C-97.74773742 383.87386871 -97.74773742 383.87386871 -100 385 C-103.375 385.3125 -103.375 385.3125 -107 385 C-109.2265625 382.98046875 -109.2265625 382.98046875 -111 381 C-111.57363281 381.53367187 -112.14726562 382.06734375 -112.73828125 382.6171875 C-121.28903345 390.11693677 -130.85423342 394.98945266 -141 400 C-140.61328125 400.84820312 -140.2265625 401.69640625 -139.828125 402.5703125 C-130.78936233 422.92990169 -125.92989832 444.92733134 -132.7421875 466.76953125 C-139.01944397 482.8915533 -151.27706773 493.312156 -166.70629883 500.43701172 C-181.27061361 506.77430673 -197.21891198 510.48006168 -213 512 C-214.31629395 512.12906738 -214.31629395 512.12906738 -215.65917969 512.26074219 C-226.97760038 513.21705795 -235.05119689 513.15032001 -244.0859375 505.69140625 C-245.04757813 504.80324219 -246.00921875 503.91507812 -247 503 C-248.03128572 502.11029536 -249.06517121 501.2235958 -250.1015625 500.33984375 C-264.82807225 487.54597116 -278.95401141 471.98396253 -282 452 C-282.82607455 439.20311905 -281.70004892 427.21261325 -278.08984375 414.89453125 C-277.69910071 411.86451068 -277.69910071 411.86451068 -279.859375 409.453125 C-283.77459197 406.39497045 -287.86936421 404.07243231 -292.25 401.75 C-293.88088645 400.87104874 -295.51113079 399.99090466 -297.140625 399.109375 C-297.85766602 398.72749023 -298.57470703 398.34560547 -299.31347656 397.95214844 C-301 397 -301 397 -302 396 C-302.85308701 390.96678666 -302.85308701 390.96678666 -302 388 C-299.3135338 385.42236718 -296.26192633 383.75801753 -293 382 C-291.33005424 381.00548558 -289.66248338 380.00693931 -288 379 C-288.36351562 378.46375 -288.72703125 377.9275 -289.1015625 377.375 C-304.36901138 353.57343867 -306.6109134 323.64280141 -300.90478516 296.39355469 C-296.02649423 275.53549875 -287.24174372 258.06804864 -272 243 C-271.19820313 242.18789062 -270.39640625 241.37578125 -269.5703125 240.5390625 C-257.32504001 228.77557123 -239.2231756 219.62629729 -222 219 C-221.97421875 218.2471875 -221.9484375 217.494375 -221.921875 216.71875 C-220.90307711 197.63944405 -215.53755721 179.23419001 -201 166 C-196.57501622 162.51169162 -192.72819905 160.42961493 -187 160 C-187.0825 158.700625 -187.165 157.40125 -187.25 156.0625 C-187.22555163 138.82639601 -179.80452652 118.56610888 -168 106 C-163.5578815 102.34178476 -158.60332966 101.76270052 -153 102 C-143.28828849 103.88008774 -134.6461125 108.38528328 -126 113 C-125.52691406 112.16597656 -125.05382812 111.33195312 -124.56640625 110.47265625 C-117.18005644 97.90290307 -108.38136614 87.57789535 -93.6875 83.625 C-81.14077722 81.48559434 -67.30081947 82.75924895 -56 89 C-55.814375 88.34 -55.62875 87.68 -55.4375 87 C-54.05143422 84.10734097 -52.87818217 82.77527843 -50.66796875 80.5390625 C-46.33841964 75.6585404 -44.74365802 70.53757561 -42.875 64.375 C-20.88051263 -3.32472448 -20.88051263 -3.32472448 0 0 Z M-13 46 C-14.29750499 49.18515384 -15.58692873 52.37352079 -16.875 55.5625 C-17.23980469 56.45775391 -17.60460937 57.35300781 -17.98046875 58.27539062 C-19.93955111 63.13747686 -21.67767129 67.92643354 -23 73 C-20.03 72.01 -17.06 71.02 -14 70 C-12.39385449 61.91191011 -11.73694048 54.2425317 -12 46 C-12.33 46 -12.66 46 -13 46 Z M-33.27734375 91.67578125 C-34.81827737 93.3813948 -35.92863811 94.96959642 -37 97 C-37.47953125 97.90878906 -37.47953125 97.90878906 -37.96875 98.8359375 C-40.38456107 104.31624964 -40.6844675 110.08104546 -41 116 C-37.94622932 115.44476897 -35.00498597 114.77195755 -32 114 C-30.99501465 113.74935791 -30.99501465 113.74935791 -29.96972656 113.49365234 C-20.5272347 111.25452526 -20.5272347 111.25452526 -13.015625 105.6171875 C-10.25850849 98.76435444 -10.58384798 91.27110054 -11 84 C-18.39566193 84 -27.26119397 87.24880311 -33.27734375 91.67578125 Z M-101 113 C-102.97332486 115.54172822 -104.54111752 118.13452473 -106 121 C-106.39058594 121.74765625 -106.78117188 122.4953125 -107.18359375 123.265625 C-108.21059604 125.6153423 -108.86506349 127.43620636 -109 130 C-107.86707152 132.08982425 -106.5606902 133.44344957 -104.82495117 135.06079102 C-102.85752812 137.15139186 -101.62863538 139.19009524 -100.28125 141.71875 C-99.84876953 142.52248047 -99.41628906 143.32621094 -98.97070312 144.15429688 C-98.65037109 144.76337891 -98.33003906 145.37246094 -98 146 C-84.99190637 147.5021699 -84.99190637 147.5021699 -73.20605469 143.57714844 C-70.5194765 140.02051867 -69.15054636 136.06099185 -67.79077148 131.85644531 C-66.91682874 129.80474397 -65.8691083 128.58240841 -64.33984375 126.97265625 C-61.41116795 123.25191788 -61.46756018 121.28772409 -61.6875 116.625 C-61.73261719 115.37976563 -61.77773438 114.13453125 -61.82421875 112.8515625 C-61.88222656 111.91054687 -61.94023437 110.96953125 -62 110 C-75.65292663 103.35105701 -89.73437034 100.55147922 -101 113 Z M43.375 116.75 C42.62476563 117.09804687 41.87453125 117.44609375 41.1015625 117.8046875 C37.07609176 119.73177456 33.9444977 121.54138366 31 125 C31.556875 125.3403125 32.11375 125.680625 32.6875 126.03125 C44.01897166 133.22826579 49.52541348 140.99541245 55.04882812 152.96875 C56.6307597 156.34700224 58.31995415 159.66964362 60 163 C60.99 162.505 60.99 162.505 62 162 C63.94189044 155.9470862 64.38548782 150.26748369 64.375 143.9375 C64.37483887 143.02226562 64.37467773 142.10703125 64.37451172 141.1640625 C64.20752004 131.1094054 61.84630496 122.28657415 58 113 C52.25788686 112.45313208 48.39657892 114.29151866 43.375 116.75 Z M-38.21142578 128.64770508 C-39.55828855 129.08692751 -40.910274 129.510774 -42.26708984 129.91821289 C-51.98626425 132.81820922 -51.98626425 132.81820922 -58.77734375 140.03515625 C-59.56947206 141.6661978 -60.31233399 143.32223981 -61 145 C-61.40831055 145.90145752 -61.81662109 146.80291504 -62.23730469 147.73168945 C-64.54017534 152.85772057 -65.40616317 157.43792435 -66 163 C-63.39392608 162.38221953 -60.79034303 161.75612789 -58.1875 161.125 C-57.44951172 160.95097656 -56.71152344 160.77695313 -55.95117188 160.59765625 C-52.50282963 159.75507489 -49.98071638 158.98714425 -47 157 C-45.82541871 154.50103336 -45.82541871 154.50103336 -44.8125 151.5625 C-40.34727065 140.4658735 -33.66881118 132.91478504 -24 126 C-28.12847835 123.93576083 -33.9489142 127.23562576 -38.21142578 128.64770508 Z M-27.140625 145.49609375 C-34.84768241 156.13377593 -36.92857537 165.91678884 -36 179 C-33.89915274 191.09120723 -26.19172309 201.13459236 -16.625 208.5 C-2.71716654 217.81117664 12.56151058 221.1462849 28.99609375 218.16015625 C40.35760054 215.88073488 51.56321667 212.88243771 62.75 209.875 C64.01787354 209.53855469 65.28574707 209.20210938 66.59204102 208.85546875 C67.77338623 208.52933594 68.95473145 208.20320313 70.171875 207.8671875 C71.2247168 207.57956543 72.27755859 207.29194336 73.36230469 206.99560547 C76.00686637 205.99740827 77.33005365 205.25817805 79 203 C79.15369551 200.47652752 79.15369551 200.47652752 78 198 C75.76908161 195.90367239 75.76908161 195.90367239 72.9375 194.125 C59.5553683 184.84049777 51.92327449 174.34795363 44.87109375 159.8125 C38.69099375 147.10704302 31.15145139 137.06912177 17.4375 132.1875 C0.80381511 127.73479051 -15.86681127 132.35016861 -27.140625 145.49609375 Z M-57.625 174 C-59.40777344 174.556875 -59.40777344 174.556875 -61.2265625 175.125 C-62.59941406 175.558125 -62.59941406 175.558125 -64 176 C-62.5438453 179.83672222 -60.78641047 180.96544196 -57.125 182.6875 C-56.26132812 183.10386719 -55.39765625 183.52023438 -54.5078125 183.94921875 C-51.80584833 185.15565158 -51.80584833 185.15565158 -48 186 C-48.33 181.38 -48.66 176.76 -49 172 C-52.05944506 172 -54.7151803 173.08711539 -57.625 174 Z M-187.76953125 183.51171875 C-197.68742611 194.07437159 -200.61489043 207.06187137 -201.1953125 221.234375 C-201.2272168 221.95326904 -201.25912109 222.67216309 -201.29199219 223.4128418 C-201.34612521 224.81472793 -201.38152747 226.21750008 -201.39550781 227.62036133 C-201.5090424 230.99716789 -201.78126069 232.72545985 -203.9140625 235.40234375 C-207.27130692 237.97371635 -209.99804026 238.30533361 -214.16943359 238.84814453 C-233.85210173 241.50074379 -251.02287823 249.46486117 -263.7265625 265.12890625 C-271.93655628 276.1057041 -276.88383985 288.73674547 -280 302 C-280.22558594 302.93714844 -280.45117188 303.87429688 -280.68359375 304.83984375 C-284.83134437 325.23533474 -281.13360843 344.20583684 -273 363 C-271.28731803 360.79327515 -269.9342657 358.85867124 -268.75 356.3125 C-267 354 -267 354 -263.5 353 C-260 353 -260 353 -258.42529297 354.24438477 C-256.90600519 356.11577881 -255.80878207 357.95251355 -254.6953125 360.08984375 C-254.06689453 361.26643555 -254.06689453 361.26643555 -253.42578125 362.46679688 C-252.56189626 364.10765951 -251.70248012 365.75088307 -250.84765625 367.39648438 C-246.09821897 376.24902879 -239.58682481 379.41992828 -230.88671875 383.8203125 C-229.77490234 384.39265625 -229.77490234 384.39265625 -228.640625 384.9765625 C-227.96547852 385.31768066 -227.29033203 385.65879883 -226.59472656 386.01025391 C-225 387 -225 387 -224 389 C-223.86584528 391.6723621 -223.95681459 394.32250488 -224 397 C-224.65871094 397.26296875 -225.31742188 397.5259375 -225.99609375 397.796875 C-227.48302734 398.39242187 -227.48302734 398.39242187 -229 399 C-229.59828613 399.21591797 -230.19657227 399.43183594 -230.81298828 399.65429688 C-244.4476901 404.74494564 -249.64828501 412.47998904 -255.77734375 425.40625 C-256.35343384 426.69499023 -256.35343384 426.69499023 -256.94116211 428.00976562 C-258 430 -258 430 -260 431 C-262.6082497 440.91134885 -261.2830153 450.80659814 -257 460 C-254.61839979 463.92453308 -251.92286043 467.46453295 -249 471 C-248.28457031 471.86753906 -247.56914062 472.73507812 -246.83203125 473.62890625 C-237.38166056 484.90289913 -237.38166056 484.90289913 -224.85571289 491.23706055 C-203.07250623 490.89999386 -176.80225471 486.48576596 -160.3125 471 C-152.56600608 462.41332235 -150.50861933 452.38289878 -150.6875 441.03515625 C-151.4449907 427.93372329 -156.77204005 413.74933892 -164.3125 403.0625 C-166.906754 399.37592853 -168.08739601 396.63198842 -168 392 C-167 388.75 -167 388.75 -165 386 C-162.67115853 384.9000306 -160.39814056 383.91859131 -158 383 C-156.83082031 382.55140625 -155.66164063 382.1028125 -154.45703125 381.640625 C-153.25433594 381.18171875 -152.05164063 380.7228125 -150.8125 380.25 C-140.29601987 376.09362967 -130.11764779 371.10640232 -123 362 C-123 361.34 -123 360.68 -123 360 C-123.81005493 359.56131592 -123.81005493 359.56131592 -124.63647461 359.11376953 C-127.07332331 357.78992607 -129.50542587 356.45759307 -131.9375 355.125 C-132.78763672 354.66480469 -133.63777344 354.20460938 -134.51367188 353.73046875 C-135.72700195 353.06337891 -135.72700195 353.06337891 -136.96484375 352.3828125 C-137.7137085 351.97434082 -138.46257324 351.56586914 -139.23413086 351.14501953 C-141 350 -141 350 -142 348 C-142.5625 345.1875 -142.5625 345.1875 -142 342 C-138.34640672 339.2232691 -134.5667566 337.29221415 -130.4921875 335.19140625 C-121.67452732 330.94975356 -121.67452732 330.94975356 -116.16796875 323.3671875 C-115.14181419 308.90556743 -126.59605929 293.3385295 -135.5625 283 C-137.35387848 280.97851649 -139.16740869 278.98453205 -141 277 C-145.01820374 279.08207889 -146.93470954 280.93656125 -149.11328125 284.88671875 C-149.63857422 285.82451172 -150.16386719 286.76230469 -150.70507812 287.72851562 C-151.50075195 289.19321289 -151.50075195 289.19321289 -152.3125 290.6875 C-152.86228516 291.67556641 -153.41207031 292.66363281 -153.97851562 293.68164062 C-155.33042599 296.11507929 -156.67031917 298.5543654 -158 301 C-160.97 301 -163.94 301 -167 301 C-167.26039063 300.34257812 -167.52078125 299.68515625 -167.7890625 299.0078125 C-168.18867188 298.01523437 -168.58828125 297.02265625 -169 296 C-169.22655273 295.39639648 -169.45310547 294.79279297 -169.68652344 294.17089844 C-175.03656555 280.41461108 -182.85510146 274.79550381 -196.07983398 268.73999023 C-197.96806564 267.88013363 -197.96806564 267.88013363 -200 268 C-201.07421875 262.04296875 -201.07421875 262.04296875 -201 260 C-198.86174436 257.41340044 -196.54371648 256.12327037 -193.54296875 254.6875 C-180.76206933 248.63981471 -180.76206933 248.63981471 -172.51171875 237.60546875 C-171.88270634 234.40278726 -172.28106332 232.17929776 -173 229 C-174.76032995 221.2016471 -176.1777927 214.47329224 -175.75 206.4375 C-175.50336212 197.76863542 -178.77342657 192.33822341 -183 185 C-183.495 183.515 -183.495 183.515 -184 182 C-186.1344502 181.7834845 -186.1344502 181.7834845 -187.76953125 183.51171875 Z M116.97119141 235.24731445 C116.15282806 235.48633484 115.33446472 235.72535522 114.49130249 235.97161865 C112.71144833 236.49202796 110.93213843 237.01430145 109.15330887 237.53820229 C106.32776513 238.37028928 103.50080851 239.19740494 100.6734314 240.02323914 C94.65597057 241.78184431 88.64038937 243.5468245 82.625 245.3125 C75.68584346 247.34903701 68.74592081 249.38289645 61.80424118 251.4108181 C59.03791356 252.2203281 56.27291953 253.03427935 53.50796509 253.84846497 C49.37692441 255.0623486 45.23682416 256.2399369 41.09025383 257.39954567 C39.28678831 257.91761609 37.49734375 258.48404569 35.71131897 259.05937195 C24.72904727 262.25973118 13.35898977 260.73178529 2.10546875 259.98046875 C-0.21406034 259.83988388 -2.53369964 259.70110711 -4.85343933 259.56404114 C-10.93590977 259.20045342 -17.0168128 258.81531238 -23.09759521 258.42462158 C-32.81598052 257.80429912 -42.53655671 257.21903888 -52.25687218 256.62990761 C-55.6247546 256.4230229 -58.99204975 256.208197 -62.35932922 255.991745 C-73.59323101 255.28299869 -84.74179542 254.78789219 -96 255 C-95.61053532 269.67528034 -92.44533499 281.29766204 -82 292 C-69.25290572 304.01623221 -53.7347953 309.79142608 -36.21875 309.28125 C-19.77329555 307.84426854 -7.02167133 300.98647639 4 289 C7.62166726 284.19292759 9.95430008 279.25892356 12 273.625 C13.73006915 269.08979816 15.44421012 267.0545719 20 265 C23.3125 264.25 23.3125 264.25 27 264 C27.74894531 263.9484375 28.49789062 263.896875 29.26953125 263.84375 C34.17346828 263.64856843 36.94942461 263.93768698 41 267 C42.73828125 269.63671875 42.73828125 269.63671875 44.3125 272.6875 C50.46635005 283.64822005 59.15508939 290.8427028 71.0859375 295.1015625 C84.40553653 298.76530825 96.07299914 297.03075202 108.25 290.375 C118.84275227 283.49658944 126.10384739 272.78466386 129.375 260.625 C131.02233007 251.37978021 130.48595975 242.01160411 128 233 C124.09401272 233 120.68257114 234.14749326 116.97119141 235.24731445 Z M-163 244 C-163.29390625 244.71285156 -163.5878125 245.42570313 -163.890625 246.16015625 C-167.83197381 254.57516248 -172.7021205 258.06589208 -181 262 C-178.10210045 264.40485414 -175.34530799 266.41187857 -172 268.125 C-166.96129049 271.15013431 -165.1382873 275.70568288 -163 281 C-162.34 281 -161.68 281 -161 281 C-159.97349357 279.15049279 -159.00479214 277.26879985 -158.0625 275.375 C-154.3149914 268.65806721 -149.99723586 265.8849363 -143 263 C-145.23191577 260.5059227 -147.27231849 259.34419079 -150.3125 258 C-156.19158561 254.89714926 -158.37180408 249.88509753 -161 244 C-161.66 244 -162.32 244 -163 244 Z M-104 327 C-105.59777524 329.17751179 -105.59777524 329.17751179 -107.125 331.875 C-107.66382813 332.77992188 -108.20265625 333.68484375 -108.7578125 334.6171875 C-110.1540893 336.84772022 -110.1540893 336.84772022 -110 339 C-110.680625 339.2475 -111.36125 339.495 -112.0625 339.75 C-115.56865083 341.24197908 -118.71620368 343.06835511 -122 345 C-119.76808423 347.4940773 -117.72768151 348.65580921 -114.6875 350 C-108.80841439 353.10285074 -106.62819592 358.11490247 -104 364 C-101.3619408 361.52165628 -99.53991761 359.3557853 -97.9375 356.125 C-94.73777733 350.71787371 -89.53812996 348.56053644 -84 346 C-86.2208637 344.12614625 -88.36256181 342.33799646 -90.9375 340.97265625 C-97.16687085 337.65740396 -99.39655238 333.44603618 -102 327 C-102.66 327 -103.32 327 -104 327 Z M-263 373 C-263.96345444 374.87237371 -264.92053102 376.7480299 -265.875 378.625 C-269.66223444 385.31393598 -274.00543468 388.11616475 -281 391 C-281 391.66 -281 392.32 -281 393 C-279.15049279 394.02650643 -277.26879985 394.99520786 -275.375 395.9375 C-268.65806721 399.6850086 -265.8849363 404.00276414 -263 411 C-260.66386221 408.24669475 -258.94078147 405.86971923 -257.4375 402.5625 C-254.66428409 397.40092262 -249.09138801 395.39646367 -244 393 C-244 392.34 -244 391.68 -244 391 C-245.84950721 389.97349357 -247.73120015 389.00479214 -249.625 388.0625 C-256.34193279 384.3149914 -259.1150637 379.99723586 -262 373 C-262.33 373 -262.66 373 -263 373 Z " fill="#000000" transform="translate(325,0)"/>
<path d="M0 0 C3.04860612 1.35697355 3.22249162 1.91020155 4.4765625 4.875 C5.05816078 6.46141911 5.61857788 8.05572664 6.16015625 9.65625 C7.00694332 12.02961145 7.86057497 14.39933941 8.7355957 16.76245117 C9.3074971 18.35052628 9.8329652 19.95613899 10.30932617 21.57543945 C11.57822636 25.2850362 12.61984823 27.51636613 15.96069336 29.70263672 C18.86445366 31.0578428 21.78028249 32.23104659 24.78515625 33.34375 C32.56812278 36.28136623 32.56812278 36.28136623 35.59765625 38.15625 C36.7734375 41.45703125 36.7734375 41.45703125 36.59765625 44.15625 C32.65562067 46.86639946 29.4885362 48.91763789 24.8203125 50.16796875 C18.93701799 51.81534715 14.20994355 53.35838377 11.02392578 58.88720703 C8.2354332 65.32256636 6.20322691 71.97493114 4.39697266 78.74536133 C3.59765625 81.15625 3.59765625 81.15625 1.59765625 83.15625 C-1.02734375 83.28125 -1.02734375 83.28125 -3.40234375 83.15625 C-4.13666459 81.45012582 -4.86436315 79.74115196 -5.58984375 78.03125 C-6.06164062 76.94070312 -6.5334375 75.85015625 -7.01953125 74.7265625 C-8.40234375 71.15625 -8.40234375 71.15625 -9.28515625 67.5234375 C-10.71877054 61.94559367 -11.95296354 57.73647278 -16.99609375 54.6328125 C-20.34663636 52.85897268 -23.7952426 51.39317974 -27.32275391 50.01074219 C-30.78299139 48.58894937 -34.07490716 46.86281882 -37.40234375 45.15625 C-37.71484375 42.34375 -37.71484375 42.34375 -37.40234375 39.15625 C-34.50759304 36.91383748 -31.52354978 35.84246794 -28.07421875 34.7734375 C-21.51287642 32.56418885 -15.4224235 30.46790291 -11.67333984 24.32177734 C-8.82812508 17.93516804 -6.85270747 11.30940596 -5.15405273 4.53540039 C-4.15055328 1.35933603 -3.40596335 0.22152607 0 0 Z " fill="#000000" transform="translate(84.40234375,5.84375)"/>
<path d="M0 0 C6.86744257 2.28914752 10.90765759 7.75831498 14.375 13.875 C17.31233157 20.30504095 16.55763418 25.92458526 14.375 32.5 C10.32709037 42.6339276 4.26810352 50.31288028 -5.1875 55.875 C-13.49218528 59.19687411 -23.94122737 59.46816494 -32.375 56.5 C-42.20791967 51.85757235 -46.87746945 43.69178766 -51 34 C-51.35320312 33.17886719 -51.70640625 32.35773438 -52.0703125 31.51171875 C-53.96476097 26.57079233 -54.79114459 22.11624378 -53 17 C-49.59110954 10.0348607 -45.57962354 3.67681872 -38 1 C-30.05975505 -0.53232797 -24.42785429 2.7147638 -18 7 C-17.51789063 6.57847656 -17.03578125 6.15695312 -16.5390625 5.72265625 C-15.90742188 5.17480469 -15.27578125 4.62695312 -14.625 4.0625 C-13.99851562 3.51722656 -13.37203125 2.97195313 -12.7265625 2.41015625 C-8.81678371 -0.78312462 -4.85106764 -0.43503652 0 0 Z M-5 13 C-8.64651203 17.57083681 -11.55458355 22.7015977 -14 28 C-17.125 28.5625 -17.125 28.5625 -21 28 C-22.85139365 25.91718214 -24.16897834 23.73754766 -25.578125 21.3359375 C-27.38080588 18.37439035 -29.45061754 16.32443695 -32 14 C-35.10331257 14.92260644 -36.74711947 15.70497271 -38.875 18.1875 C-40.83423742 23.08559355 -39.69182379 26.28840997 -37.796875 30.9765625 C-35.05382206 36.91021911 -33.02720757 41.18730313 -27 44 C-21.5246432 45.82511893 -16.12287937 45.82717072 -10.8125 43.4375 C-3.9532955 39.52379882 -0.22383641 33.67805013 2.4375 26.359375 C3.25560884 22.92786292 2.70451704 21.05392637 1 18 C-0.87769142 15.15079947 -0.87769142 15.15079947 -3 13 C-3.66 13 -4.32 13 -5 13 Z " fill="#000000" transform="translate(385,327)"/>
<path d="M0 0 C2.47790107 4.95580215 1.08369552 10.42856322 -0.5625 15.4375 C-4.22125711 24.67394278 -10.07456336 31.54405363 -19 36 C-30.24959083 40.63558236 -40.95452595 42.00893303 -52.390625 37.33203125 C-58.92436918 33.99669178 -64.6817367 29.63652659 -68 23 C-68.5 20.3125 -68.5 20.3125 -68 18 C-65.09248443 15.36555586 -62.30015419 14.28040977 -58.56054688 13.20654297 C-57.47261841 12.88966522 -56.38468994 12.57278748 -55.26379395 12.24630737 C-54.09392944 11.91494781 -52.92406494 11.58358826 -51.71875 11.2421875 C-50.51311401 10.8936673 -49.30747803 10.54514709 -48.06530762 10.18606567 C-44.86608911 9.26301509 -41.66492211 8.34743081 -38.46258545 7.43530273 C-35.20884642 6.50638579 -31.95812605 5.56702643 -28.70703125 4.62890625 C-23.95245746 3.25963731 -19.19720038 1.89287295 -14.43945312 0.53466797 C-13.00527039 0.12521439 -13.00527039 0.12521439 -11.54211426 -0.29251099 C-10.70321655 -0.52598236 -9.86431885 -0.75945374 -9 -1 C-8.28324097 -1.21341034 -7.56648193 -1.42682068 -6.82800293 -1.646698 C-4.10159438 -2.17363676 -2.41723569 -1.24128319 0 0 Z " fill="#000000" transform="translate(446,247)"/>
<path d="M0 0 C1.2179274 0.08404083 2.4358548 0.16808167 3.69068909 0.25466919 C6.24470247 0.43252376 8.79857065 0.61247488 11.35229492 0.79443359 C15.266197 1.07118157 19.1808582 1.33462569 23.09570312 1.59765625 C25.58469266 1.77262511 28.07362719 1.94837853 30.5625 2.125 C31.7322789 2.20217255 32.9020578 2.27934509 34.10728455 2.3588562 C35.19263992 2.43878815 36.2779953 2.51872009 37.39624023 2.60107422 C38.34901352 2.66769257 39.3017868 2.73431091 40.28343201 2.802948 C42.88463062 3.20588064 44.61466103 3.76238049 46.81640625 5.1953125 C47.94140625 7.8203125 47.94140625 7.8203125 47.81640625 11.1953125 C42.45371759 21.31587531 33.38393932 26.70064741 22.81640625 30.1953125 C9.71103957 32.89098301 -3.57986581 31.33289069 -14.92578125 24 C-20.23235513 19.75841327 -24.94590008 13.62868181 -27.18359375 7.1953125 C-26.99609375 3.3828125 -26.99609375 3.3828125 -26.18359375 0.1953125 C-19.27654432 -3.25821221 -7.4993485 -0.52708528 0 0 Z " fill="#000000" transform="translate(273.18359375,266.8046875)"/>
<path d="M0 0 C1.65 0 3.3 0 5 0 C5.3196875 1.27875 5.639375 2.5575 5.96875 3.875 C8.75749174 14.37186256 8.75749174 14.37186256 15.95703125 22.0078125 C19.8389238 24.05756408 23.85097054 25.58096614 28 27 C28.66 27.33 29.32 27.66 30 28 C30 29.65 30 31.3 30 33 C27.3773768 34.33819498 24.75213401 35.6707151 22.125 37 C21.37863281 37.3815625 20.63226563 37.763125 19.86328125 38.15625 C18.79013672 38.69765625 18.79013672 38.69765625 17.6953125 39.25 C17.03547363 39.58515625 16.37563477 39.9203125 15.69580078 40.265625 C14 41 14 41 12 41 C11.82984375 41.60585937 11.6596875 42.21171875 11.484375 42.8359375 C10.14711356 47.4594478 8.71331448 52.04070382 7.0625 56.5625 C6.76472656 57.38878906 6.46695312 58.21507812 6.16015625 59.06640625 C5 61 5 61 2.87109375 61.77734375 C2.25363281 61.85082031 1.63617188 61.92429688 1 62 C-1.53488449 58.09731861 -3.14853928 54.19830699 -4.6875 49.8125 C-5.12449219 48.58144531 -5.56148438 47.35039063 -6.01171875 46.08203125 C-7 43 -7 43 -7 41 C-8.28777344 40.60167969 -8.28777344 40.60167969 -9.6015625 40.1953125 C-13.02910808 38.98976199 -16.14173798 37.52755614 -19.375 35.875 C-20.43460937 35.33617187 -21.49421875 34.79734375 -22.5859375 34.2421875 C-23.38257813 33.83226562 -24.17921875 33.42234375 -25 33 C-25 31.35 -25 29.7 -25 28 C-23.81921875 27.53851563 -22.6384375 27.07703125 -21.421875 26.6015625 C-12.89360491 23.35602613 -12.89360491 23.35602613 -6.12109375 17.59375 C-5.16772547 15.0727092 -4.56379753 12.63368356 -4 10 C-3.28076835 8.11298362 -2.53118655 6.23722248 -1.75 4.375 C-1.24726563 3.11816406 -1.24726563 3.11816406 -0.734375 1.8359375 C-0.49203125 1.23007813 -0.2496875 0.62421875 0 0 Z " fill="#000000" transform="translate(473,78)"/>
<path d="M0 0 C10.74509273 3.87678061 20.1518571 12.62215702 25.22265625 22.8359375 C26.56154788 26.56330416 26.59222925 29.05180503 26 33 C24.00243339 36.67552256 22.49963533 37.77375004 18.6875 39.5 C15.20127483 39.9727085 12.99123666 40.0173009 9.8125 38.44921875 C6.4990653 35.79989919 4.40767268 32.13209732 2.0390625 28.65234375 C-0.35231303 25.54172309 -2.63565836 23.96013757 -6.0390625 22.1171875 C-9.83992059 19.95175839 -14.01762447 16.96475107 -16 13 C-16.4136968 8.34591099 -15.81070393 5.74760524 -13 2 C-8.65914175 -0.8939055 -5.09153087 -0.77787277 0 0 Z " fill="#000000" transform="translate(337,138)"/>
<path d="M0 0 C3.3194147 2.61315625 5.40238279 5.11390409 7 9 C7.33403245 13.78779839 6.66898085 17.15021351 3.6875 20.9375 C-0.11588535 23.85637713 -2.58156638 25.39678143 -7.4375 24.875 C-11.6301148 24.28886142 -14.03697464 23.14260266 -17 20 C-19.28352953 16.95529396 -19.42464146 13.79109142 -19.3125 10.02734375 C-18.78010527 6.57343294 -17.28137423 4.58155505 -15 2 C-10.14783252 -1.49807423 -5.60488156 -1.70628313 0 0 Z " fill="#000000" transform="translate(28,136)"/>
<path d="M0 0 C3.02519989 2.05971056 4.66926776 3.51573824 5.48046875 7.15625 C5.73681175 11.31316358 5.31925337 13.49537371 3.0625 17.0625 C-1.04811899 19.66309569 -4.2594664 20.05631455 -9 19 C-12.70219508 16.45474088 -13.7681855 14.81135075 -15 10.5 C-15 6.51887435 -14.5290797 5.03489564 -12 2 C-7.91125 -1.40729167 -5.05982822 -1.4456652 0 0 Z " fill="#000000" transform="translate(407,41)"/>
</svg>
