<?xml version="1.0" encoding="UTF-8"?>
<svg version="1.1" xmlns="http://www.w3.org/2000/svg" width="512" height="512">
<path d="M0 0 C4.04800052 2.08141871 6.36572026 4.50846846 8.14453125 8.69140625 C9.14748262 12.57040081 9.46038093 16.32923709 9.625 20.3125 C9.67974487 21.49718872 9.67974487 21.49718872 9.7355957 22.70581055 C9.83902196 25.13693321 9.92374715 27.56788291 10 30 C10.03504639 31.06734375 10.03504639 31.06734375 10.07080078 32.15625 C10.34060734 41.73324903 9.76880679 51.09271395 8.6237793 60.60668945 C7.88767687 67.13540531 8.16428905 73.10402375 9.54296875 79.53125 C12.06775865 93.16943133 9.09933918 105.38947202 4 118 C4.82177734 117.30777344 4.82177734 117.30777344 5.66015625 116.6015625 C20.4158083 104.46113984 37.60590872 91.98585639 57.4375 91.75 C58.73558594 91.72421875 60.03367187 91.6984375 61.37109375 91.671875 C66.50784027 92.13633863 69.64064932 94.18255605 73 98 C81.83890413 108.9013151 85.48583439 125.20694858 86 139 C86.03996094 139.92941406 86.07992188 140.85882813 86.12109375 141.81640625 C86.38081648 153.53448458 84.48928551 164.18099393 80 175 C79.69449219 175.73863281 79.38898438 176.47726563 79.07421875 177.23828125 C78.39995089 178.8328768 77.70314429 180.41792535 77 182 C77.67546875 182.44730469 78.3509375 182.89460937 79.046875 183.35546875 C89.90479154 190.71437461 89.90479154 190.71437461 92 197 C92.74903653 203.9132388 91.90288774 209.18840074 88 215 C87.34 215.66 86.68 216.32 86 217 C86.30852905 217.82346924 86.30852905 217.82346924 86.62329102 218.66357422 C92.06901349 233.45021295 95.76402639 248.16029289 98.74047852 263.59716797 C98.87818161 264.30871033 99.0158847 265.02025269 99.15776062 265.75335693 C99.5304197 267.69394042 99.89418337 269.63622614 100.25732422 271.57861328 C101.62635358 277.88550923 103.2736169 281.70404834 107.625 286.5 C122.79776317 303.96231578 130.44457912 326.91299917 129 350 C126.80467842 369.99363342 119.16447438 387.72498865 106 403 C105.47019531 403.67417969 104.94039063 404.34835937 104.39453125 405.04296875 C87.45574872 425.9968701 58.9682469 436.77460915 32.9765625 439.7578125 C27.99008543 440.26379509 23.00040252 440.66056032 18 441 C18.24596924 441.65959717 18.49193848 442.31919434 18.74536133 442.9987793 C21.9806478 452.12159304 23.86362767 461.33489538 25.6875 470.8125 C25.99736993 472.38489918 26.30791319 473.95716582 26.61914062 475.52929688 C26.91726729 477.04675712 27.21481415 478.56433142 27.51171875 480.08203125 C27.6471257 480.77383987 27.78253265 481.4656485 27.92204285 482.17842102 C31.98993948 503.33911897 31.98993948 503.33911897 28.9765625 508.8828125 C26.17808561 511.5885222 23.18210109 512.36200126 19.4375 512.625 C16.03789469 512.40751683 14.9937618 511.99575271 12.0625 510 C7.67849041 503.62325877 7.28447378 495.12535336 5.99560547 487.62744141 C3.11751451 470.90680777 -0.25333609 454.57364894 -6.375 438.6875 C-8.08775337 434.12015767 -8.74265454 430.8685131 -8 426 C-6 422.5625 -6 422.5625 -3 420 C0.64064694 419.10580601 3.65635747 418.96464099 7.375 419.0625 C36.86259369 419.74825799 64.81845936 411.99382915 86.5234375 391.6328125 C99.77432835 377.83922305 106.83660568 360.34158724 106.51953125 341.29370117 C105.76793614 323.8946099 98.39882994 308.46119951 86.03710938 296.38647461 C81.17424484 291.56878336 79.9968971 286.78307782 78.95703125 280.16796875 C78.77382324 279.05131836 78.59061523 277.93466797 78.40185547 276.78417969 C78.20736816 275.59727539 78.01288086 274.41037109 77.8125 273.1875 C75.00600985 256.75348631 71.08023218 240.55065442 65 225 C57.50381674 226.29659278 50.09489504 227.83256783 42.6875 229.5625 C20.54741762 234.7179978 -0.32468506 235.15998717 -20.4453125 223.34375 C-27.32732669 218.99800342 -34.39465352 213.2787706 -38.3125 206.0625 C-40.96344415 201.90935416 -45.36926686 201.57996444 -49.91918945 200.55249023 C-60.89437775 198.01054564 -72.19420822 192.72810849 -78.875 183.375 C-81.18930998 178.48923449 -81.17293072 174.36085235 -81 169 C-80.67 168.34 -80.34 167.68 -80 167 C-80.55872803 167.09087891 -81.11745605 167.18175781 -81.69311523 167.27539062 C-84.27346783 167.6908463 -86.85541338 168.09546702 -89.4375 168.5 C-90.31599609 168.64308594 -91.19449219 168.78617188 -92.09960938 168.93359375 C-106.79732891 171.2114691 -106.79732891 171.2114691 -111.890625 168.41015625 C-114.39355519 165.55032676 -115.45781339 163.00696609 -116.75 159.4375 C-122.80874583 144.17431227 -135.44420827 133.98490022 -149.78125 126.64453125 C-152.70702042 125.79461555 -154.17147952 125.82831514 -157 127 C-165.43873268 140.28030972 -168.46479806 159.0102196 -165.30859375 174.36328125 C-162.8934542 182.31606294 -158.76260732 188.59986791 -153.5625 195 C-151.71388084 198.54934878 -151.49786707 200.43204832 -152.125 204.33203125 C-153.45155245 208.37683181 -155.64633142 211.86602635 -157.83935547 215.48535156 C-170.29983663 236.32164205 -169.21018025 259.82190342 -168.703125 283.2019043 C-168.62599177 286.7666649 -168.55821937 290.33150264 -168.4921875 293.89648438 C-168.26530737 305.62527565 -167.95827899 317.35067278 -167.5390625 329.07421875 C-167.50430817 330.11318802 -167.46955383 331.15215729 -167.43374634 332.22261047 C-166.88502848 346.58131079 -164.71215354 360.17339053 -160.64794922 373.93823242 C-157.41539455 385.12500795 -157.41539455 385.12500795 -159 390 C-161.06640625 392.3046875 -161.06640625 392.3046875 -164 395 C-194.69973459 424.29833886 -213.7127131 461.02475619 -225.25 501.75 C-226.64150507 506.32472685 -227.69098444 509.47079522 -232 512 C-236.66198266 513.19665865 -240.33506965 512.9808892 -244.51953125 510.515625 C-247.13617698 508.45527403 -249.5650342 506.27162176 -252 504 C-252.83660156 503.29101562 -253.67320312 502.58203125 -254.53515625 501.8515625 C-269.7481494 488.82529016 -279.81320941 472.93395294 -283.75 453.25 C-285.15429952 434.99410623 -280.58658016 419.29634487 -269 405 C-268.195625 404.00226563 -268.195625 404.00226563 -267.375 402.984375 C-266.26939585 401.64006087 -265.13858917 400.31649372 -264 399 C-264.56847656 398.46632813 -265.13695312 397.93265625 -265.72265625 397.3828125 C-282.0125055 381.66405981 -292.42742873 359.86467958 -293 337 C-293.05027344 336.09378906 -293.10054688 335.18757813 -293.15234375 334.25390625 C-294.14989592 302.93076802 -283.28452432 268.27687256 -262 245 C-251.90653124 234.41677387 -239.94457757 225.81854513 -226 221 C-225.01 221 -224.02 221 -223 221 C-223.061875 219.824375 -223.12375 218.64875 -223.1875 217.4375 C-223.1616092 200.99684415 -217.1253346 182.33297876 -205.875 170.1875 C-202.32541709 166.71035756 -199.2823847 165.3074599 -194.625 163.6875 C-191.54132943 162.28583156 -189.50169785 161.33516363 -188.2734375 158.06640625 C-187.36659326 153.85605801 -187.01662958 149.60678078 -186.6171875 145.32421875 C-185.29580474 131.71495878 -178.93679496 115.9868237 -168.6875 106.8125 C-163.0389714 102.25150736 -158.15371567 102.2805406 -151 103 C-142.20999603 105.4422526 -134.05013509 109.77911836 -126 114 C-125.64421875 112.71416016 -125.64421875 112.71416016 -125.28125 111.40234375 C-121.12682822 100.37032738 -111.78531698 91.72640356 -101.34765625 86.73046875 C-86.46524094 80.6878238 -71.9106432 83.51784273 -57 88 C-56.52949219 87.31292969 -56.05898438 86.62585938 -55.57421875 85.91796875 C-54.95160156 85.01691406 -54.32898438 84.11585937 -53.6875 83.1875 C-53.07261719 82.29417969 -52.45773437 81.40085937 -51.82421875 80.48046875 C-50 78 -50 78 -48.50317383 76.66381836 C-46.58380598 74.53932723 -45.99317169 72.62347861 -45.125 69.8984375 C-44.6153772 68.34564087 -44.6153772 68.34564087 -44.09545898 66.76147461 C-43.73395752 65.64393799 -43.37245605 64.52640137 -43 63.375 C-38.47546663 49.8523115 -32.95338409 36.9453578 -27 24 C-26.220895 22.27755137 -25.44222201 20.55490724 -24.6640625 18.83203125 C-23.96501356 17.30401327 -23.26459416 15.77662116 -22.5625 14.25 C-22.10411743 13.24054321 -22.10411743 13.24054321 -21.63647461 12.21069336 C-19.5125755 7.68029613 -17.32020965 3.54995675 -13.08203125 0.71875 C-8.77206699 -0.76911759 -4.46887175 -0.7195641 0 0 Z M-13 45 C-14.42842911 48.66452852 -15.85247676 52.33072569 -17.27246094 55.99853516 C-17.99441847 57.86060415 -18.71985238 59.72132407 -19.4453125 61.58203125 C-19.89648438 62.74863281 -20.34765625 63.91523437 -20.8125 65.1171875 C-21.23144531 66.19597168 -21.65039062 67.27475586 -22.08203125 68.38623047 C-23.11045434 70.85278758 -23.11045434 70.85278758 -23 73 C-20.36 72.34 -17.72 71.68 -15 71 C-12.27590942 62.28291016 -11.84965161 54.08772511 -12 45 C-12.33 45 -12.66 45 -13 45 Z M-33.3515625 91.7109375 C-34.85254653 93.41205273 -35.95374225 94.9906598 -37 97 C-37.31839844 97.60199219 -37.63679687 98.20398438 -37.96484375 98.82421875 C-40.21247311 103.59913642 -41.04604993 107.94658469 -41.01953125 113.16015625 C-41.01308594 114.42730469 -41.00664062 115.69445312 -41 117 C-36.89874483 115.91276354 -32.82456572 114.74551057 -28.75 113.5625 C-27.59113281 113.25634766 -26.43226563 112.95019531 -25.23828125 112.63476562 C-19.04265517 110.93404103 -19.04265517 110.93404103 -14.34570312 106.84716797 C-13.31012163 104.5629898 -12.58103746 102.436408 -12 100 C-11.81163574 99.29963623 -11.62327148 98.59927246 -11.42919922 97.87768555 C-10.88803273 95.51015912 -10.86775722 93.30133025 -10.875 90.875 C-10.87242187 90.00617188 -10.86984375 89.13734375 -10.8671875 88.2421875 C-10.85462066 85.96280551 -10.85462066 85.96280551 -12 84 C-18.62503519 84 -28.0018256 87.81860401 -33.3515625 91.7109375 Z M-102.38671875 114.71484375 C-107.3293185 121.52103233 -107.3293185 121.52103233 -108.8359375 129.48828125 C-107.85281884 132.44223124 -106.47623468 134.50044262 -104.625 137 C-102.23628676 140.2527159 -100.03116379 143.51088428 -98 147 C-94.9163358 146.86068862 -91.83316583 146.71240719 -88.75 146.5625 C-87.87730469 146.52318359 -87.00460937 146.48386719 -86.10546875 146.44335938 C-85.26113281 146.40146484 -84.41679687 146.35957031 -83.546875 146.31640625 C-82.77182617 146.27974854 -81.99677734 146.24309082 -81.19824219 146.20532227 C-78.98874158 145.99894843 -77.08812866 145.76038612 -75 145 C-73.67627994 142.76418647 -72.60045438 140.67499012 -71.5625 138.3125 C-69.83066707 134.43726914 -68.24555478 131.12655349 -65.328125 128.00390625 C-62.49493021 124.34832438 -62.31687817 122.19636184 -62.1875 117.625 C-62.13980469 116.37976563 -62.09210938 115.13453125 -62.04296875 113.8515625 C-62.02878906 112.91054687 -62.01460937 111.96953125 -62 111 C-76.36471726 103.31394349 -91.2667027 101.03850217 -102.38671875 114.71484375 Z M32 124 C32 124.66 32 125.32 32 126 C33.61098327 127.17436164 35.26614619 128.28827612 36.9375 129.375 C46.93239432 136.53437231 52.35425948 145.60225185 56.70605469 156.83203125 C57.39787119 158.585206 58.19163998 160.29741788 59 162 C60.485 162.495 60.485 162.495 62 163 C63.76596774 156.89681547 64.38614434 151.34406242 64.375 145 C64.37411377 144.08734375 64.37322754 143.1746875 64.37231445 142.234375 C64.20451879 132.47667404 63.03408372 121.02517935 57 113 C48.62458777 113 38.5754982 119.03928123 32 124 Z M-41.25 129.75 C-42.46558594 130.09160156 -43.68117188 130.43320313 -44.93359375 130.78515625 C-52.85514413 133.29897431 -56.80578599 135.96226677 -60.7734375 143.33837891 C-62.14047784 146.30483468 -63.43103698 149.18183364 -64.375 152.3125 C-64.67148437 153.25738281 -64.96796875 154.20226562 -65.2734375 155.17578125 C-66.02646368 158.10286688 -66.54988791 161.01249135 -67 164 C-64.03371457 163.26938783 -61.07221056 162.52916524 -58.1171875 161.75390625 C-55 161 -55 161 -51.0625 160.5625 C-46.54171616 158.25597763 -45.93882397 154.8083334 -44.24609375 150.1796875 C-40.36252861 140.2699006 -32.9715298 133.68505813 -25 127 C-30.44054871 125.18648376 -35.93859935 128.0759355 -41.25 129.75 Z M-27.1796875 145.671875 C-34.8539867 155.48707312 -37.97998203 166.63481836 -36.59375 178.921875 C-34.04063174 192.15777754 -26.20747755 202.23935669 -15.62890625 210.25 C-1.29989791 219.78847807 14.38061117 221.77709329 31.00415039 218.61083984 C41.7040305 216.4291839 52.27211792 213.71720224 62.8125 210.875 C64.07642578 210.53855469 65.34035156 210.20210938 66.64257812 209.85546875 C67.81884766 209.52933594 68.99511719 209.20320313 70.20703125 208.8671875 C71.2535083 208.57956543 72.29998535 208.29194336 73.37817383 207.99560547 C76.01132045 206.9957012 77.32969171 206.24506877 79 204 C79.20567332 201.50240404 79.20567332 201.50240404 78 199 C75.44056038 196.57431269 75.44056038 196.57431269 72.25 194.4375 C70.67992187 193.32181641 70.67992187 193.32181641 69.078125 192.18359375 C68.06234375 191.46300781 67.0465625 190.74242187 66 190 C55.45337922 182.05114569 48.67123966 170.24675985 43.4375 158.3125 C38.32326966 146.80961946 31.7959367 139.45623726 20.25 134.125 C2.85894439 127.45990001 -14.54426396 132.26911805 -27.1796875 145.671875 Z M-58.625 175 C-60.40777344 175.556875 -60.40777344 175.556875 -62.2265625 176.125 C-63.59941406 176.558125 -63.59941406 176.558125 -65 177 C-64.29103153 180.20396437 -64.29103153 180.20396437 -61.41796875 181.5703125 C-60.35191406 182.08335937 -59.28585937 182.59640625 -58.1875 183.125 C-57.12917969 183.64320313 -56.07085937 184.16140625 -54.98046875 184.6953125 C-51.89655119 186.14405042 -51.89655119 186.14405042 -48 187 C-48.66 182.38 -49.32 177.76 -50 173 C-53.05944506 173 -55.7151803 174.08711539 -58.625 175 Z M-192 187 C-200.62948497 200.03228343 -202.18994481 214.41529055 -202.69140625 229.671875 C-202.97766465 232.75911754 -203.16571573 234.53077117 -205 237 C-206.77734375 237.90625 -206.77734375 237.90625 -208.9375 238.5 C-209.74445313 238.74234375 -210.55140625 238.9846875 -211.3828125 239.234375 C-212.24648437 239.48703125 -213.11015625 239.7396875 -214 240 C-234.07681001 246.35266227 -248.238163 258.46146551 -258 277 C-258.54140625 278.02609375 -259.0828125 279.0521875 -259.640625 280.109375 C-270.67159311 302.50558297 -275.50945722 330.19995204 -268.3203125 354.45703125 C-262.81144082 369.23971355 -252.94296762 381.67232594 -239.625 390.25 C-237 392 -237 392 -235 395 C-234.6640625 397.12109375 -234.6640625 397.12109375 -234.625 399.4375 C-234.59664062 400.19933594 -234.56828125 400.96117187 -234.5390625 401.74609375 C-235.54480354 406.66399695 -240.31976998 408.96293357 -244.25 411.5625 C-253.24681492 418.04885521 -259.70971965 427.04648527 -262 438 C-263.71255642 452.90739588 -259.35936239 463.64827223 -250.37890625 475.34375 C-247.76959978 478.25726133 -245.05862049 480.57070718 -242 483 C-241.8047876 482.43829102 -241.6095752 481.87658203 -241.40844727 481.29785156 C-229.41542496 447.01220358 -213.50592523 409.90215131 -185.125 385.8125 C-182.92407761 383.64803181 -182.04528039 382.74039554 -181.85546875 379.63671875 C-182.36840629 376.67746369 -183.15645028 373.88242735 -184 371 C-188.80645945 349.43255376 -189.31982566 327.38946336 -189.625 305.375 C-189.66091783 303.08219063 -189.69705293 300.78938466 -189.73339844 298.49658203 C-189.81810624 292.97454536 -189.89072808 287.45242026 -189.96032715 281.93017578 C-189.99617218 279.28271673 -190.03915132 276.63554808 -190.08691406 273.98828125 C-190.4987493 251.02753661 -189.95252629 227.58851737 -177.625 207.375 C-176.26809976 204.6527189 -175.71576228 202.99930429 -176.55859375 200.03613281 C-178.5768195 195.09147972 -181.27802814 190.58216113 -184 186 C-184.495 184.515 -184.495 184.515 -185 183 C-188.24979918 183 -189.66246158 184.85199172 -192 187 Z " fill="#000000" transform="translate(350,0)"/>
<path d="M0 0 C3.03821241 1.2889386 3.53181898 2.92937238 5.0625 5.875 C6.39897783 9.23495407 7.58034195 12.64143335 8.75 16.0625 C9.07033203 16.97708984 9.39066406 17.89167969 9.72070312 18.83398438 C12.0625 25.59973014 12.0625 25.59973014 12.0625 27.875 C12.88363281 28.13410156 13.70476562 28.39320312 14.55078125 28.66015625 C18.53730623 30.03925444 22.38250099 31.63361333 26.25 33.3125 C26.96091797 33.61220703 27.67183594 33.91191406 28.40429688 34.22070312 C31.84280924 35.71191122 34.66050379 36.96383758 37.0625 39.875 C37.0625 42.375 37.0625 42.375 36.0625 44.875 C31.81392686 47.80873426 27.0380385 49.87534115 22.375 52.0625 C21.60349609 52.43052734 20.83199219 52.79855469 20.03710938 53.17773438 C19.29912109 53.52513672 18.56113281 53.87253906 17.80078125 54.23046875 C17.13087158 54.54653076 16.46096191 54.86259277 15.77075195 55.18823242 C14.0625 55.875 14.0625 55.875 12.0625 55.875 C11.82466797 56.69677734 11.82466797 56.69677734 11.58203125 57.53515625 C9.97883563 62.9824784 8.29829003 68.40608044 6.5625 73.8125 C6.36116455 74.4629126 6.1598291 75.1133252 5.95239258 75.78344727 C3.8663996 82.18869246 3.8663996 82.18869246 1.0625 83.875 C-1.38745117 83.78076172 -1.38745117 83.78076172 -3.9375 82.875 C-5.33129883 80.49829102 -5.33129883 80.49829102 -6.39453125 77.37890625 C-6.78447266 76.26322266 -7.17441406 75.14753906 -7.57617188 73.99804688 C-7.96353516 72.82306641 -8.35089844 71.64808594 -8.75 70.4375 C-9.15669922 69.26638672 -9.56339844 68.09527344 -9.98242188 66.88867188 C-12.9375 58.28169643 -12.9375 58.28169643 -12.9375 55.875 C-13.75863281 55.61589844 -14.57976562 55.35679688 -15.42578125 55.08984375 C-19.41230623 53.71074556 -23.25750099 52.11638667 -27.125 50.4375 C-28.19137695 49.98793945 -28.19137695 49.98793945 -29.27929688 49.52929688 C-32.71780924 48.03808878 -35.53550379 46.78616242 -37.9375 43.875 C-37.9375 41.375 -37.9375 41.375 -36.9375 38.875 C-32.68892686 35.94126574 -27.9130385 33.87465885 -23.25 31.6875 C-22.47849609 31.31947266 -21.70699219 30.95144531 -20.91210938 30.57226562 C-20.17412109 30.22486328 -19.43613281 29.87746094 -18.67578125 29.51953125 C-17.67091675 29.04543823 -17.67091675 29.04543823 -16.64575195 28.56176758 C-14.9375 27.875 -14.9375 27.875 -12.9375 27.875 C-12.79054687 27.35035156 -12.64359375 26.82570313 -12.4921875 26.28515625 C-10.78912159 20.40272746 -8.87209775 14.60044134 -6.875 8.8125 C-6.6176709 8.0501001 -6.3603418 7.2877002 -6.09521484 6.50219727 C-3.73953485 -0.24126031 -3.73953485 -0.24126031 0 0 Z " fill="#000000" transform="translate(147.9375,2.125)"/>
<path d="M0 0 C7.09843639 5.06668357 11.46442759 11.69159902 13.1875 20.25 C14.25973581 28.52342445 12.43596532 35.65872848 7.609375 42.48046875 C-0.17123482 51.82070531 -9.11779993 56.28823988 -21.30859375 57.63671875 C-32.01115635 57.98273248 -42.66308319 55.98988983 -51.03515625 48.9453125 C-58.55333059 41.77413083 -62.81677666 35.96189541 -63.25 25.375 C-62.98328761 16.55126513 -59.98477244 9.49887653 -53.93359375 3.0703125 C-38.53501005 -10.1446783 -16.79707839 -10.17836207 0 0 Z M-45.8125 14.25 C-48.62139396 18.20225785 -50.17768588 21.85094638 -50 26.75 C-49.05472771 32.22312656 -45.9631994 35.72867728 -41.8125 39.25 C-34.56238549 43.99204087 -26.88283821 45.3019346 -18.35546875 43.82421875 C-11.21621506 42.03666368 -5.83955786 38.63230925 -1.6171875 32.51953125 C0.61240384 28.13065101 0.64025192 23.85340764 -0.8125 19.25 C-3.70590243 13.01110101 -8.64440302 9.92026739 -14.8125 7.25 C-25.231491 3.93198461 -38.17047746 6.15844672 -45.8125 14.25 Z " fill="#000000" transform="translate(427.8125,319.75)"/>
<path d="M0 0 C8.17420987 6.7199026 12.81046384 14.04591981 14.125 24.75 C12.80539679 35.11831091 9.13647389 42.81206656 0.9375 49.4375 C-8.83345879 56.32030591 -19.584281 58.09265472 -31.3125 57.1875 C-42.06299535 55.12915833 -51.478322 50.73561079 -57.8125 41.5625 C-62.58194691 33.88147212 -63.10012585 27.14051284 -62.3125 18.1875 C-60.26236274 9.91329333 -54.47394417 3.09473999 -47.5 -1.625 C-32.94618143 -9.79944079 -13.77803636 -9.64204046 0 0 Z M-46.3125 15.1875 C-48.84007531 18.97886297 -49.99842265 22.42293506 -49.77734375 27.0390625 C-48.59316442 32.51216025 -45.46125164 36.76513452 -40.828125 39.83203125 C-33.15713288 43.7696559 -26.05949419 45.59805257 -17.52734375 43.50390625 C-10.90384916 41.30822235 -4.91756306 38.41524544 -1.15234375 32.3046875 C0.41432707 28.35521967 0.21584963 24.35485771 -0.3125 20.1875 C-3.29726318 14.10317506 -7.89728205 10.4162951 -13.875 7.375 C-25.84993841 3.38335386 -37.55443256 6.42943256 -46.3125 15.1875 Z " fill="#000000" transform="translate(267.3125,319.8125)"/>
<path d="M0 0 C1.94238281 0.18969727 1.94238281 0.18969727 4 1 C5.09667969 2.73413086 5.09667969 2.73413086 5.921875 4.96484375 C6.22480469 5.76470703 6.52773437 6.56457031 6.83984375 7.38867188 C7.14019531 8.22978516 7.44054687 9.07089844 7.75 9.9375 C8.06582031 10.77474609 8.38164063 11.61199219 8.70703125 12.47460938 C11 18.6437872 11 18.6437872 11 21 C11.81791016 21.23783203 11.81791016 21.23783203 12.65234375 21.48046875 C18.56121247 23.30868283 23.69864172 25.82921124 29 29 C29 30.65 29 32.3 29 34 C27.83082031 34.43828125 26.66164062 34.8765625 25.45703125 35.328125 C16.63246207 38.68870044 16.63246207 38.68870044 9.86328125 44.921875 C8.65341031 47.92937754 7.76978391 50.85356086 7 54 C6.41673976 55.59115345 5.81544689 57.17594647 5.1875 58.75 C4.795625 59.8225 4.40375 60.895 4 62 C2.35 62 0.7 62 -1 62 C-1.15331787 61.43603516 -1.30663574 60.87207031 -1.46459961 60.29101562 C-4.79352589 47.86455095 -4.79352589 47.86455095 -13.31640625 38.890625 C-17.41613193 36.84958201 -21.62327046 35.33291309 -26 34 C-26 32.35 -26 30.7 -26 29 C-23.3773768 27.66180502 -20.75213401 26.3292849 -18.125 25 C-17.37863281 24.6184375 -16.63226563 24.236875 -15.86328125 23.84375 C-15.14785156 23.4828125 -14.43242188 23.121875 -13.6953125 22.75 C-13.03547363 22.41484375 -12.37563477 22.0796875 -11.69580078 21.734375 C-10 21 -10 21 -8 21 C-7.82984375 20.39414063 -7.6596875 19.78828125 -7.484375 19.1640625 C-2.73160173 2.73160173 -2.73160173 2.73160173 0 0 Z " fill="#000000" transform="translate(69,95)"/>
<path d="M0 0 C3.68748991 1.57347175 6.78877612 3.61499152 10 6 C10.63808594 6.44472656 11.27617187 6.88945312 11.93359375 7.34765625 C17.85151256 11.86847173 21.70304228 18.40608457 25 25 C25.54724071 30.69130337 24.59333707 33.56117185 21 38 C17.52507478 39.73746261 13.79950935 39.45011609 10 39 C5.38855753 36.53341449 3.22164259 32.39929675 0.46484375 28.11328125 C-2.21279422 24.2503422 -5.56875254 22.22243051 -9.625 20.0625 C-13.16053946 17.90189255 -14.49349052 16.8105828 -16 13 C-16.64127011 8.591268 -16.27405869 6.51976649 -14.1875 2.5625 C-10.28400872 -1.52844708 -5.20231553 -1.04744608 0 0 Z " fill="#000000" transform="translate(363,139)"/>
<path d="M0 0 C0.78532608 -0.00524185 1.57065216 -0.0104837 2.379776 -0.0158844 C4.03987445 -0.02230447 5.7000184 -0.02096775 7.36010742 -0.01245117 C9.897799 -0.00394766 12.43323439 -0.0326886 14.97070312 -0.06445312 C16.58463474 -0.06606544 18.19857034 -0.06548702 19.8125 -0.0625 C20.94859962 -0.07935097 20.94859962 -0.07935097 22.10765076 -0.09654236 C25.59430928 -0.05052389 27.62077538 0.18102004 30.48657227 2.23803711 C31.97265625 4.43359375 31.97265625 4.43359375 31.91015625 8.05859375 C30.97265625 11.43359375 30.97265625 11.43359375 27.97265625 13.43359375 C25.24536133 13.66064453 25.24536133 13.66064453 21.9921875 13.62890625 C20.24711914 13.61923828 20.24711914 13.61923828 18.46679688 13.609375 C17.25185547 13.59261719 16.03691406 13.57585937 14.78515625 13.55859375 C13.55861328 13.54957031 12.33207031 13.54054688 11.06835938 13.53125 C8.0362633 13.50765392 5.00455687 13.47473216 1.97265625 13.43359375 C2.00746094 14.12066406 2.04226563 14.80773437 2.078125 15.515625 C2.10519531 16.41667969 2.13226563 17.31773437 2.16015625 18.24609375 C2.19496094 19.13941406 2.22976563 20.03273438 2.265625 20.953125 C1.97265625 23.43359375 1.97265625 23.43359375 0.64453125 25.19921875 C-1.90459322 27.08128261 -3.88515336 27.36946742 -7.02734375 27.43359375 C-9.19140625 26.06640625 -9.19140625 26.06640625 -11.02734375 23.43359375 C-11.59883117 20.06977542 -11.53983248 16.77461431 -11.46484375 13.37109375 C-11.47193359 12.46037109 -11.47902344 11.54964844 -11.48632812 10.61132812 C-11.42407392 4.11294694 -11.42407392 4.11294694 -10.00195312 1.67773438 C-6.87477185 -0.29260635 -3.58425484 -0.01385534 0 0 Z " fill="#000000" transform="translate(376.02734375,277.56640625)"/>
<path d="M0 0 C0.78532608 -0.00524185 1.57065216 -0.0104837 2.379776 -0.0158844 C4.03987445 -0.02230447 5.7000184 -0.02096775 7.36010742 -0.01245117 C9.897799 -0.00394766 12.43323439 -0.0326886 14.97070312 -0.06445312 C16.58463474 -0.06606544 18.19857034 -0.06548702 19.8125 -0.0625 C20.94859962 -0.07935097 20.94859962 -0.07935097 22.10765076 -0.09654236 C25.59430928 -0.05052389 27.62077538 0.18102004 30.48657227 2.23803711 C31.97265625 4.43359375 31.97265625 4.43359375 31.91015625 8.05859375 C30.97265625 11.43359375 30.97265625 11.43359375 27.97265625 13.43359375 C25.24536133 13.66064453 25.24536133 13.66064453 21.9921875 13.62890625 C20.24711914 13.61923828 20.24711914 13.61923828 18.46679688 13.609375 C17.25185547 13.59261719 16.03691406 13.57585937 14.78515625 13.55859375 C13.55861328 13.54957031 12.33207031 13.54054688 11.06835938 13.53125 C8.0362633 13.50765392 5.00455687 13.47473216 1.97265625 13.43359375 C1.99730957 14.12428955 2.02196289 14.81498535 2.04736328 15.52661133 C2.06653809 16.43048584 2.08571289 17.33436035 2.10546875 18.265625 C2.13012207 19.1625708 2.15477539 20.0595166 2.18017578 20.98364258 C1.97265625 23.43359375 1.97265625 23.43359375 -0.15234375 26.12109375 C-3.67044981 27.72718565 -5.36833061 27.57195339 -9.02734375 26.43359375 C-11.95880708 23.50213042 -11.31895818 20.94918629 -11.34960938 16.93945312 C-11.34638672 15.96814453 -11.34316406 14.99683594 -11.33984375 13.99609375 C-11.35595703 13.02865234 -11.37207031 12.06121094 -11.38867188 11.06445312 C-11.38931641 10.13568359 -11.38996094 9.20691406 -11.390625 8.25 C-11.39360596 7.39865479 -11.39658691 6.54730957 -11.3996582 5.67016602 C-11.02734375 3.43359375 -11.02734375 3.43359375 -10.00634766 1.65966797 C-6.87032436 -0.2832273 -3.58000569 -0.01383891 0 0 Z " fill="#000000" transform="translate(248.02734375,277.56640625)"/>
<path d="M0 0 C2.87141523 2.2023476 3.52883642 4.19151637 4.1875 7.6875 C4.34605469 8.49574219 4.50460937 9.30398438 4.66796875 10.13671875 C4.77753906 10.75160156 4.88710938 11.36648438 5 12 C8.41642759 12.25015873 8.41642759 12.25015873 12 12 C14.18763511 9.07028964 14.18763511 9.07028964 14.9375 5.4375 C16 2 16 2 19 0 C24.27478528 -0.5494568 24.27478528 -0.5494568 26.66015625 1.2578125 C28.75641148 3.98355545 28.47242342 6.2536781 28.34765625 9.58984375 C27.57152012 14.97047287 25.15280003 19.24997997 21.125 22.875 C15.73837925 26.53790211 11.60665461 27.47992397 5.23828125 26.52734375 C-0.15391845 25.25693021 -3.67005056 22.90771421 -6.875 18.375 C-9.44011329 13.82426745 -10.46078481 9.21608404 -10 4 C-7.46322438 -0.26178305 -4.77387467 -0.71100261 0 0 Z " fill="#000000" transform="translate(318,323)"/>
<path d="M0 0 C3.12177233 1.68287927 5.39137035 3.7827407 7 7 C7.50260166 12.11664964 7.84102072 16.52821374 5.25 21.0625 C1.04430092 24.68407421 -2.29051419 25.44614135 -7.74609375 25.3203125 C-11.26706116 24.81993238 -13.36552095 23.31320111 -16 21 C-18.56244894 16.79089144 -18.68288871 12.80520471 -18 8 C-13.99990071 0.1426621 -8.3981325 -1.33576596 0 0 Z " fill="#000000" transform="translate(463,42)"/>
<path d="M0 0 C5.08580482 3.00357314 5.08580482 3.00357314 6.22265625 6.03125 C6.57209257 8.86002025 5.78178956 10.52866234 4.46875 13.0234375 C1.46875 15.0234375 1.46875 15.0234375 -1.28125 14.7109375 C-2.35375 14.4840625 -3.42625 14.2571875 -4.53125 14.0234375 C-9.83994606 12.79620422 -9.83994606 12.79620422 -14.53125 15.0234375 C-18.09375 14.8359375 -18.09375 14.8359375 -21.53125 14.0234375 C-23.88173538 10.49770943 -24.19522817 9.17330105 -23.53125 5.0234375 C-17.14593605 -1.36187645 -8.62506987 -3.32757325 0 0 Z " fill="#000000" transform="translate(392.53125,240.9765625)"/>
<path d="M0 0 C2.52740487 1.41345511 4.37544866 2.54386607 5.69140625 5.17578125 C6.26373329 11.47137873 6.26373329 11.47137873 4.06640625 14.17578125 C0.85709158 15.52707164 -0.93969939 14.96846228 -4.30859375 14.17578125 C-9.61728981 12.94854797 -9.61728981 12.94854797 -14.30859375 15.17578125 C-17.87109375 14.98828125 -17.87109375 14.98828125 -21.30859375 14.17578125 C-23.65907913 10.65005318 -23.97257192 9.3256448 -23.30859375 5.17578125 C-17.00233761 -1.13047489 -8.59048714 -3.06699287 0 0 Z " fill="#000000" transform="translate(272.30859375,240.82421875)"/>
<path d="M0 0 C2.52981749 2.33521614 3.68326407 4.19760232 4.9375 7.375 C5.02761621 11.15988078 3.75041549 13.68671354 2 17 C-2.02499843 19.68333228 -5.27142136 19.79639219 -10 19 C-13.70219508 16.45474088 -14.7681855 14.81135075 -16 10.5 C-16 6.51887435 -15.5290797 5.03489564 -13 2 C-8.89340779 -1.51993618 -4.98865626 -1.71158918 0 0 Z " fill="#000000" transform="translate(49,223)"/>
</svg>
